<?xml version="1.0" standalone="no"?>
<!DOCTYPE svg PUBLIC "-//W3C//DTD SVG 1.1//EN" "http://www.w3.org/Graphics/SVG/1.1/DTD/svg11.dtd" >
<svg xmlns="http://www.w3.org/2000/svg">
<metadata></metadata>
<defs>
<font id="gabriel_weiss_friends_fontRg" horiz-adv-x="925" >
<font-face units-per-em="2048" ascent="1638" descent="-410" />
<missing-glyph horiz-adv-x="970" />
<glyph horiz-adv-x="0" />
<glyph unicode="&#xd;" horiz-adv-x="970" />
<glyph unicode=" "  horiz-adv-x="970" />
<glyph unicode="&#x09;" horiz-adv-x="970" />
<glyph unicode="&#xa0;" horiz-adv-x="970" />
<glyph unicode="!" horiz-adv-x="684" d="M80 158q-14 -115 61 -129q51 4 91 33.5t40 70.5q0 47 -55 94q-39 35 -70 35q-55 0 -67 -104zM125 479q0 137 74 359q70 207 163 370q16 31 60 174q45 154 70 207q8 16 38.5 28.5t49.5 12.5q127 1 127 -67q0 -203 -84 -402q-66 -154 -248 -532q-115 -233 -103 -269 q-29 -31 -36 -30q-72 0 -95 47q-16 29 -16 102z" />
<glyph unicode="&#x22;" horiz-adv-x="446" d="M57 1309q-14 186 0 247q2 20 5.5 44t15.5 24q6 0 14 -4q33 -18 64 -35q39 -25 51 -49q18 -31 6 -158q-25 -250 -78 -274q-8 -4 -16 -4q-33 -1 -49 67zM258 1307q-14 188 0 249q2 20 5 44t16 24q6 0 13 -4t54 -21q29 -10 41 -34q18 -31 6 -158q-8 -68 -31 -152 q-31 -117 -67 -116q-33 0 -33 92q-2 27 -4 76z" />
<glyph unicode="#" horiz-adv-x="1429" d="M6 1047q0 14 17 16q27 4 53 8q74 18 190 19q119 0 262 -19q31 106 95 287q8 16 38.5 28.5t49.5 12.5q72 0 59 2q8 0 8 -31q0 -156 -57 -330q86 -16 158 -36q12 -4 28 -7q139 305 127 344q53 55 66 56q80 0 80 -19q0 -166 -76 -393q123 -4 178 -16q16 -2 35.5 -29 t23.5 -45q16 -68 17 -57q0 -9 -29 -17q-133 -33 -297 -26q-43 -98 -88 -183q360 -76 416 -75q25 0 37 8q16 -10 37 -29q8 -29 8 -45q0 -25 -27 -27h-49q-27 -2 -121 -14q-76 -12 -125 -12q-117 0 -250 18q-27 -98 -86 -260q-6 -16 -36.5 -28.5t-51.5 -12.5q-70 0 -59 -2 q-6 2 -6 31q0 141 47 303q-63 16 -199 37q-147 -301 -135 -336q-29 -31 -37 -31q-66 0 -65 25q0 6 7 34.5t7 49.5q0 106 45 266q-82 6 -129 14q-16 4 -35.5 31t-23.5 45q-16 66 -17 57q0 8 29 15q104 27 240 28q39 98 84 189q-248 47 -314 47q-33 0 -45 -8q-68 37 -70 51 q-14 53 -14 66zM565 684q88 -14 187 -33q32 80 75 170q-84 14 -182 33q-37 -80 -80 -170z" />
<glyph unicode="$" horiz-adv-x="1142" d="M0 883q0 123 197 272q162 127 362 209q20 190 39 248q6 18 35 33.5t47 18.5t39 7q14 2 18 2q11 0 15 -31q10 -90 6 -233q227 -2 227 -106q0 -86 -78 -129q-59 -33 -184 -50l-72 -245q481 -102 482 -402q0 -164 -279 -274q-186 -72 -418 -99q-6 -31 -4 -34 q-12 -16 -33 -35q-18 -2 -32 -2q-35 0 -35 22q0 6 2 22.5t4 26.5q-143 23 -234 62v65q0 41 21 99q31 78 78 90h149q16 115 43 242q-201 6 -274 34q-121 47 -121 187zM285 940q33 -7 172 -27q31 111 59 185q-215 -35 -231 -158zM520 420h109q2 0 39 -4t63 -4q119 0 160 73v33 q-88 112 -305 135z" />
<glyph unicode="%" horiz-adv-x="1173" d="M6 113q0 -51 53 -74q8 -4 15 -4q10 0 22.5 15.5t22.5 17.5q174 283 360 497q190 205 381 412q217 248 295 473q-4 6 8.5 29.5t12.5 31.5q-1 11 -13 17q-45 18 -104 0q-311 -348 -623 -697q-248 -289 -340 -518q-25 -41 -49 -82q-41 -72 -41 -118zM39 1253q0 98 68.5 178 t154.5 80q96 0 168 -45q84 -51 84 -141q0 -113 -100 -174q-80 -49 -181 -49q-195 0 -194 151zM197 1266q0 -63 59 -64q41 0 72 43q28 37 28 74q0 82 -77 82q-37 0 -64 -62q-18 -47 -18 -73zM608 270q0 27 10 58q29 76 98.5 126t143.5 50q31 0 58 -10q74 -27 124 -80 q59 -59 60 -127q0 -27 -10 -54q-49 -137 -218 -137q-66 0 -124 23q-141 51 -142 151zM770 287q-12 -35 5.5 -59.5t53.5 -24.5q33 0 66 25.5t43 52.5q6 16 6 32q0 29 -18.5 52.5t-44.5 23.5q-33 0 -74 -47q-29 -35 -37 -55z" />
<glyph unicode="&#x26;" horiz-adv-x="659" d="M-12 391q0 -90 63 -168q57 -68 187 -149q-4 -63 6 -180h127q41 37 61 141q29 141 33 151q-72 37 -141 74q-113 68 -113 123q0 68 119 205q111 129 172 155q23 59 22 72q0 74 -88 109q-109 41 -135 94q27 63 123 98q78 29 158 55q77 41 77 121q0 53 -43 133 q-47 90 -102 105q-31 -82 -92 -236q-47 -10 -119 -39q-88 -68 -139 -163q-41 -78 -41 -136q0 -68 54 -109.5t110 -82.5q-299 -190 -299 -373z" />
<glyph unicode="'" horiz-adv-x="270" d="M156 1327q-14 188 0 250q2 20 5 44t15 24q6 0 13.5 -4.5t54.5 -20.5q29 -10 41 -35q18 -31 6 -158q-8 -68 -31 -151q-31 -117 -67 -117q-33 0 -33 92q-2 27 -4 76z" />
<glyph unicode="(" horiz-adv-x="489" d="M0 737q0 270 76 451q115 268 418 461q6 -3 16 -11q-23 -70 -66 -127q-131 -180 -211 -456q-76 -256 -75 -482q0 -145 30 -264q23 -84 58 -151q31 -59 30 -58q0 -29 -31.5 -59.5t-56.5 -30.5q-45 0 -106 199q-55 174 -68 289q-14 127 -14 239z" />
<glyph unicode=")" horiz-adv-x="458" d="M0 59q0 2 57 144q66 164 99 272q23 82 41 254q18 162 18 283q0 96 -35 428q-2 14 -12 49t-10 41q0 25 24.5 53.5t46.5 28.5q27 0 56 -70q149 -358 149 -698q0 -522 -405 -807h-21q-8 8 -8 22z" />
<glyph unicode="*" horiz-adv-x="829" d="M16 1235q0 8 7 20q27 45 40 62q23 25 61 39t105 12q-33 39 -75 86q-35 35 -35 80q0 25 18.5 51.5t42.5 26.5q10 0 23.5 -8.5t126.5 -128.5q23 119 61 133q16 6 31 6q35 0 37 -41l2 -143q39 33 65 45q84 39 144 45q29 2 52 -19.5t19 -52.5q-6 -35 -92 -96q139 -14 156 -52 q4 -8 4 -16q0 -47 -133 -51l-121 -12q98 -117 121.5 -161t23.5 -59q0 -14 -18 -14q-4 0 -14 2h-19q-8 0 -23.5 -4t-23.5 -4q-53 0 -156 102q-6 -53 -12 -71q-8 -45 -14 -92q-14 -66 -37 -66q-6 0 -12 4q-31 23 -49 72q-14 43 -29 88q-8 20 -10 51l-9 -6q-61 -72 -120 -72 q-33 0 -74 17.5t-41 35.5q0 8 18 31q25 31 35 49q23 41 94 80q-57 0 -69 2q-33 4 -64 6q-37 4 -37 23zM186 1204zM229 1368zM283 1069zM330 1475zM446 1083zM555 1221zM649 1352z" />
<glyph unicode="+" horiz-adv-x="929" d="M88 801q0 25 18 45l56 6l209 -18q0 27 2 38q2 82 14 195q10 25 46 50.5t63 25.5q23 0 43 -19l6 -55l-13 -205v-14q45 6 109 12q41 2 111 -12q80 -16 106.5 -37.5t26.5 -44.5q0 -8 -3 -18.5t-3 -12.5q0 -8 -117 -41q-27 -8 -127 -43l-76 6q8 -55 8 -69q4 -37 -12 -94 q-14 -63 -39 -95q-12 -20 -39 -43q-49 0 -106 109q-6 35 -13 125l4 86q-86 2 -200 16q-23 10 -48.5 46t-25.5 61zM371 467q2 -6 2 -10q0 6 -2 10z" />
<glyph unicode="," horiz-adv-x="309" d="M70 -162q6 -53 32 -49q31 2 64 4t43 17q20 29 27 40q16 29 20 62q29 236 35 301q2 29 -37 29q-27 0 -44 -7.5t-49 -49.5t-34 -52q-25 -123 -25 -133q0 -29 -12 -53q-16 -31 -18 -39q-6 -29 -2 -70z" />
<glyph unicode="-" horiz-adv-x="929" d="M88 764q0 -25 25.5 -60.5t48.5 -46.5q70 -6 194 -18q51 -6 281 -18q53 2 135 12q23 6 69 35.5t46 38.5q0 2 3 12t3 18q0 23 -26.5 44.5t-110.5 37.5q-72 12 -113 10q-12 0 -137 -18q-113 -14 -139 -12q-41 4 -205 16l-56 -6q-18 -20 -18 -45z" />
<glyph unicode="." horiz-adv-x="370" d="M35 82l4 88q33 82 111 82q25 0 51 -10l57 -47l43 -80q10 -45 -51 -86q-49 -33 -80 -33q-37 0 -79 25.5t-56 60.5z" />
<glyph unicode="/" horiz-adv-x="776" d="M6 117q0 25 14.5 64.5t14.5 43.5q27 174 121 355q45 86 231 384t326 562q55 31 104 22q16 -2 17 -18q0 -8 -5.5 -25.5t-5.5 -23.5t2 -8q-18 -170 -102 -334q-51 -100 -183 -286.5t-188 -295.5q-131 -246 -209 -479q-10 -4 -21 -24.5t-32 -16.5q-84 14 -84 80z" />
<glyph unicode="0" horiz-adv-x="1372" d="M-2 551q0 133 53 354q72 287 189 465q154 233 364 234q348 0 545 -209q190 -203 190 -537q0 -338 -209 -610q-231 -303 -581 -303q-266 0 -416 180q-135 166 -135 426zM428 924q0 -158 61 -346q84 -260 228 -261h110q80 0 154 250q61 205 61 301q0 37 -32 164 q-45 170 -107 277q-84 145 -186 145q-104 0 -205 -248q-84 -205 -84 -282z" />
<glyph unicode="1" horiz-adv-x="1003" d="M-12 772v88q-2 45 286 338q281 283 344 320q43 25 132 49q78 20 106 20q41 0 125 -53q2 -4 2 -18q0 -72 -82 -619q-98 -643 -127 -907q-4 -2 -59 -25q-37 -16 -56 -16q-63 0 -114 92q-43 74 -43 123q0 33 84 205q88 182 100 268q20 172 39 344q25 219 70 360v33 q-166 -143 -463 -579q-78 -27 -164 -27q25 0 -109 -4q-63 -4 -71 8z" />
<glyph unicode="2" horiz-adv-x="1351" d="M2 -72q0 129 170 398q127 197 365 495q168 207 335 412q-51 37 -120 43q4 0 -117 0q-94 0 -193 -39q-61 -23 -141 -70q-66 -39 -78 -39q-90 0 -90 164q0 215 584 215h90q49 -2 57 -2q303 0 303 -155q0 -94 -188 -336q-92 -119 -371 -436q-221 -252 -262 -326q10 -4 23 -4 q31 0 102 31q80 33 116 39t326 6q260 0 398 -19l37 -39q-12 -29 -27 -59q-18 -37 -45 -43q-383 -106 -969 -225q-25 -4 -103.5 -48.5t-103.5 -44.5q-98 0 -98 82z" />
<glyph unicode="3" d="M31 1231v55q41 47 110 119q57 47 310 135q229 80 251 80q78 0 152 -80q68 -72 68 -135q0 -72 -116 -267.5t-116 -197.5q0 -12 55.5 -152.5t55.5 -158.5q0 -150 -197 -393q-201 -254 -348 -254q-49 0 -174 49q-14 2 -14 30q0 18 116 148q150 166 217 258q117 164 117 266 q0 12 -23.5 90t-23.5 92q0 76 115.5 236t115.5 205t-18 82q-23 47 -61 47q-59 0 -146 -62q-76 -51 -102 -94q-4 -6 -41 -108q-94 -29 -146 -29q-109 0 -157 39z" />
<glyph unicode="4" horiz-adv-x="995" d="M-20 961q0 68 16 122q20 66 139 299q129 256 162 256q53 0 90 -69q27 -51 27 -76q0 -18 -109.5 -282.5t-109.5 -282.5q0 -72 88 -72q47 0 122.5 28.5t90.5 53.5q16 33 51 213q37 197 69 285q53 145 129 145q53 0 103 -47q2 -25 2 -51q0 -113 -55 -293q-47 -139 -93 -281 q16 -10 60 -8l196 12l35 -34q-23 -57 -127 -93q-76 -27 -153 -51q-68 -39 -117 -251t-57 -236q-51 -145 -160 -248h-78l-33 35l174 665q-37 12 -147 19q-117 8 -170 24q-90 25 -127 86q-18 31 -18 132z" />
<glyph unicode="5" horiz-adv-x="1210" d="M12 621q0 53 31 178q182 -78 330 -168q0 -12 -13.5 -40t-13.5 -48q0 -68 70 -168q66 -88 98 -96q47 -10 88 -11q250 0 250 357q0 221 -129 325q-23 18 -84 25q-53 4 -107 10q-104 16 -135 25q-76 20 -118 59q-51 45 -74 197q-14 90 -15 168q0 39 50 90q35 37 53 47 q84 49 199 57q272 18 307 19h86q8 -100 28 -271q-43 10 -96 10q-41 0 -121 -8t-118 -8q-27 -2 -66 -4q-29 -4 -29 -20q0 -25 23 -84q29 -68 62.5 -103t154.5 -61q135 -31 174 -54q98 -59 205 -315q104 -246 104 -393q0 -168 -100 -240q-16 -10 -186 -47q-186 -41 -263 -41 q-145 0 -321 152q-94 84 -291 309q-33 39 -33 152z" />
<glyph unicode="6" horiz-adv-x="1095" d="M8 500q0 162 68 393q84 301 233 487q190 236 455 236q53 0 137 -41q-14 -51 -100 -109l-144 -96q-82 -70 -163.5 -194.5t-114.5 -233.5q119 0 237 -2q201 -10 316 -59q158 -70 158 -213q0 -303 -113 -486q-125 -203 -363 -202q-348 0 -471 96q-135 109 -135 424zM457 500 q0 -205 123 -279q137 269 137 400q0 150 -86 157q-135 -82 -164 -145q-10 -27 -10 -133z" />
<glyph unicode="7" horiz-adv-x="1507" d="M0 1376q0 68 55 142q53 68 90 67q16 0 40 -11t40 -11t62 8q53 12 65 14q164 20 479 43q262 18 312 19q291 -1 350 -60q8 -215 -281 -809q51 -14 154 -43q-47 -55 -92 -108q-63 -63 -152 -72q-23 -2 -227.5 -278.5t-273.5 -276.5q-59 0 -70 18l-6 68l375 477 q-41 23 -179 82q23 100 113 131q20 8 145 23q57 123 103 305q37 156 74 311q-6 8 -52 8q-111 0 -419 -53q-299 -53 -351 -78q-76 -37 -180 -22q-92 12 -121 26q-53 23 -53 80z" />
<glyph unicode="8" horiz-adv-x="1091" d="M-10 397q0 256 301 461q-74 70 -121 162t-47 156q0 201 65 305q88 137 304 137q145 0 290 -84q178 -100 179 -258q0 -74 -82 -187.5t-170 -164.5q76 -53 215 -179q76 -84 123 -200.5t47 -220.5q0 -160 -105 -256q-94 -88 -229 -88q-291 0 -500 88q-270 113 -270 329z M258 389q0 -80 33 -139q41 -70 117 -70q90 0 163 41q105 62 105 185q0 147 -227 327q-104 -96 -144 -160q-47 -80 -47 -184zM424 1251q0 -45 43 -116.5t84 -83.5q125 107 125 209q-31 141 -84 141q-37 0 -96 -41q-72 -49 -72 -109z" />
<glyph unicode="9" horiz-adv-x="1107" d="M4 1180q0 176 293 278q203 72 346 72q147 0 219 -47q-29 -49 -172 -90q-219 -61 -244 -70q-123 -51 -122 -133q0 -90 116 -90q25 0 58 5l34 5q168 0 201 68q10 61 21 125q25 68 170 67q164 0 163 -180q0 -18 -2 -49t-2 -41q0 -45 -28 -137q-25 -72 -47 -146 q-12 -125 -25 -250q-35 -274 -96 -440q-84 -236 -213 -236q-23 0 -69 11.5t-81 11.5v205q0 -2 119 780q-43 37 -219 62q-209 33 -281 59q-139 51 -139 160z" />
<glyph unicode=":" horiz-adv-x="303" d="M49 823l2 74q2 23 33 45.5t66 22.5q18 0 36 -9l47 -38l37 -66q8 -39 -43 -72q-41 -29 -65 -28q-31 0 -72 28.5t-41 42.5zM55 283l4 73q2 23 32 45.5t67 22.5q18 0 35 -8l47 -39l36 -68q8 -37 -37.5 -67.5t-70.5 -30.5q-29 0 -70 28.5t-43 43.5z" />
<glyph unicode=";" horiz-adv-x="309" d="M70 -129q4 -16 30 -12q31 2 64 4t43 16q20 29 26 41q16 29 21 62q8 78 18 196q2 29 -22.5 45t-42.5 10q-14 -6 -46 -48t-34 -52q-25 -123 -25 -133q0 -29 -12 -53q-16 -31 -18 -39q-6 -27 -2 -37zM88 403l2 72q2 25 33 46.5t65 21.5q18 0 37 -6l47 -41l37 -66 q8 -37 -43 -72q-41 -27 -65 -26q-31 0 -72 27.5t-41 43.5z" />
<glyph unicode="&#x3c;" horiz-adv-x="614" d="M6 692q-10 -61 17 -92q47 -31 131 -86q33 -25 190 -119q39 -18 100 -43q18 -4 62 0q45 4 49 10.5t11 13.5t7 21q0 10 -6 23q-10 29 -60 67.5t-79 53.5q-88 31 -207 82q-28 18 -139 88l-41 16q-14 -4 -35 -35zM10 700q-4 -31 17 -45q51 -35 90 -24q49 31 135 82 q35 20 186 123q33 29 82 73q10 14 25.5 55.5t11.5 47.5l-8 20q-12 16 -39 19q-29 0 -90 -31q-51 -27 -78 -47q-66 -68 -162 -154q-28 -16 -139 -88z" />
<glyph unicode="=" horiz-adv-x="847" d="M18 545q0 -53 88 -88q57 -23 181 -37q55 -6 276 -6q113 -8 139 0q20 6 53 34.5t33 38.5q0 2 5.5 15.5t5.5 23.5q0 35 -45 52q-31 10 -185 2q-45 -2 -272 18q-41 4 -205 -2l-55 -6q-18 -20 -19 -45zM27 801q0 -25 25.5 -60.5t47.5 -46.5q70 -6 195 -18q51 -6 280 -19 q53 2 136 13q23 6 68.5 35.5t45.5 37.5q0 2 3 12.5t3 18.5q0 23 -26.5 44.5t-110.5 37.5q-72 12 -112 10q-12 0 -138 -18q-113 -14 -139 -12q-41 4 -205 16l-55 -6q-18 -20 -18 -45z" />
<glyph unicode="&#x3e;" horiz-adv-x="620" d="M41 1026q0 -10 6 -25q12 -27 66 -67q45 -37 75 -51q88 -31 207 -82q29 -18 140 -88l40 -17q14 4 33 35q12 59 -16 92q-45 31 -129 86q-35 25 -193 119q-37 18 -100 43q-16 4 -59 0q-45 -4 -49.5 -10t-12.5 -14.5t-8 -20.5zM57 412q6 -10 13.5 -23.5t35.5 -15.5 q29 0 91 30q51 25 75 48q66 66 162 151q28 18 139 88l33 31q2 31 -18 47q-49 35 -90 25q-47 -31 -133 -82q-35 -23 -189 -125q-33 -27 -80 -72q-12 -14 -27.5 -55t-11.5 -47z" />
<glyph unicode="?" horiz-adv-x="686" d="M2 1223q0 63 180 198q170 125 211 125q129 0 217 -53q99 -60 99 -160q0 -127 -64 -227q-123 -195 -174 -309q-14 -33 -45 -193q-29 -152 -64 -219q-150 31 -149 166q0 96 162 327.5t162 254.5q0 70 -52.5 137t-105.5 67q-86 0 -191.5 -86t-128.5 -86q-57 0 -57 58z M203 25q-4 80 34.5 138t98.5 58q37 0 81 -31.5t44 -76.5q0 -61 -62 -105q-49 -35 -92 -35q-86 0 -104 52z" />
<glyph unicode="@" horiz-adv-x="1370" d="M-8 569q0 137 63 330q74 229 195 371q152 176 342 176q201 0 420 -186q209 -178 305 -406q43 -102 43 -303q0 -379 -297 -379q-88 0 -172 35q-106 45 -119 117q-10 -45 -63 -76q-43 -25 -82 -25q-164 0 -265 96q-106 100 -106 283q0 160 123 238q98 63 248 63 q90 0 182 -35q131 -51 131 -147q0 -25 -26.5 -47.5t-51.5 -22.5q-55 0 -86 62.5t-76 62.5q-66 0 -153 -74q-98 -84 -98 -174q0 -141 155 -141q57 0 110.5 67.5t61.5 67.5q57 0 90 -22q-2 -23 -2 -144q0 -39 51 -65q37 -20 60 -21q109 0 172 205q45 139 45 238 q0 240 -191 393q-164 133 -360 133q-221 0 -374.5 -164t-153.5 -413q0 -176 77 -340q74 -150 148 -193q137 -80 291 -80q43 0 59.5 19.5t30.5 40.5h20q43 -59 43 -129q0 -82 -73 -82q-264 0 -476 168q-242 193 -241 503z" />
<glyph unicode="A" horiz-adv-x="1931" d="M-123 4q0 131 645 723q383 338 764 676q39 33 117 55q72 18 133 19q102 0 129 -76q12 -33 12 -150l-41 -508h285h4q40 0 64 -43q-20 -109 -43 -139.5t-76 -30.5q-12 0 -51 2.5t-66 2.5q4 0 -74 -9q-32 -3 -53.5 -3t-34.5 3l-24 -192q-29 -199 -76 -318 q-66 -168 -160 -168q-139 0 -139 330q0 82 9 185.5t9 97.5q-4 4 -3 17.5t-13 13.5q-43 0 -240 -27q-246 -35 -376 -74q-10 -2 -78 -94q-80 -109 -94 -125q-80 -106 -160 -213q-90 -111 -203 -111q-166 0 -166 156zM823 676l402 80q-8 78 -17 155q-10 96 -49 133 q-76 -55 -180 -178q-78 -96 -156 -190z" />
<glyph unicode="B" horiz-adv-x="1892" d="M23 369q6 43 43 135q70 135 213 436q14 35 36 156q18 106 50 153q25 37 229 84q420 96 686 97q461 0 461 -189q0 -49 -60.5 -155.5t-117.5 -155.5q236 -45 346 -199q90 -125 90 -303q0 -23 -12 -98q-16 -86 -31 -127q-123 -117 -582 -252q-498 -150 -878 -150 q-303 0 -387 90.5t-84 387.5q0 94 -2 90zM254 240q291 67 474 67h5q164 0 164 -53q0 -35 -94 -94q-51 -29 -105 -58q1063 133 1063 291q0 53 -108 135q-86 66 -133 84q-119 43 -445 43q-160 0 -256 -22q-88 -23 -176 -45q-70 -12 -141 -25q-80 -16 -119 -41 q-55 -37 -98 -139q-32 -78 -32 -125q0 -10 1 -18zM471 895q6 4 45 2q92 -2 199 -2q180 10 378.5 82t290.5 160l-22 24h-229h-9q-113 0 -336 -49q-317 -70 -317 -174v-43z" />
<glyph unicode="C" horiz-adv-x="1916" d="M4 356q0 227 315 529q264 254 642 463q354 198 512 198h2q116 0 116 -141q0 -63 -8 -82q-10 -31 -63 -78q-14 -12 -357 -172q-354 -168 -549 -319q-284 -224 -284 -453q0 -115 139 -162q81 -28 186 -28h7q174 0 407 49q186 41 270 76q143 76 439 213q197 80 204 79 q33 0 95.5 -46t62.5 -81q0 -33 -155 -100q-893 -383 -1405 -383q-236 0 -379 80q-197 111 -197 358z" />
<glyph unicode="D" horiz-adv-x="1826" d="M4 20q0 154 100.5 482.5t100.5 466.5q0 80 -23 143q23 35 84 35q31 0 68 -10q31 41 51 147q20 121 39 158q37 76 119 76q23 0 51 -7q39 -29 39 -92v-12q0 -45 10 -74q293 152 408 180q78 18 340 19q315 0 487 -64q307 -111 307 -426q0 -252 -393 -503 q-281 -182 -733 -344q-12 -4 -397 -127q-121 -39 -334 -127q-117 -47 -199 -47t-106 30q-18 25 -19 96zM307 250q311 88 918 270q704 225 704 463q0 162 -268 250q-188 61 -363 61q-276 0 -501 -116q-76 -39 -154 -78q-90 -51 -102 -76q-74 -145 -135 -381 q-49 -197 -99 -393z" />
<glyph unicode="E" horiz-adv-x="1390" d="M-2 127q0 201 186 737q176 508 238 561q70 63 405 64q174 0 222 -12q102 -25 192 -134l-33 -92q-53 -8 -139 -8q-18 0 -59 2h-60q-174 0 -250 -41q-111 -57 -110 -217l-2 -86h21q125 0 390 21q290 22 392 22h8q76 0 142.5 -30.5t66.5 -79.5q-1 -21 -13 -41 q-238 -51 -671 -101q-283 -31 -381 -96q-127 -84 -183 -336q37 -20 154 -20q25 0 305.5 101t304.5 101q74 0 107 -16q57 -25 110 -113q-86 -160 -448 -315q-346 -147 -578 -148q-160 0 -233 56q-84 66 -84 221z" />
<glyph unicode="F" horiz-adv-x="1484" d="M2 -266q0 135 117 353t117 263q0 29 -50.5 92.5t-50.5 124.5q0 84 123 105q66 6 133 12q2 4 223 551q70 170 158 207q78 31 385 31q12 0 55 2t70 2q242 0 242 -150q0 -102 -68 -141q-45 -25 -139 -25h-309q-94 0 -191 -151q-76 -118 -76 -178q0 -9 2 -17l852 103 q74 0 134 -21q83 -29 83 -86q0 -18 -43 -68.5t-75.5 -56.5t-337.5 -53q-203 -31 -426 -90q-84 -20 -166 -41q-115 -31 -176 -66q-78 -45 -146 -291q-55 -211 -110 -421q-70 -217 -158 -218q-84 0 -133 93q-39 70 -39 135z" />
<glyph unicode="G" horiz-adv-x="1562" d="M-2 319q0 203 203 484q193 264 454 459q273 204 463 204h2q117 0 226 -59q127 -70 127 -178q0 -90 -93 -217q-96 -135 -186 -135q-45 0 -66 88q-31 141 -36 155q-31 72 -100 72q-10 0 -21 -2q-127 -16 -439 -332q-317 -322 -317 -457q0 -137 147 -206q109 -53 244 -54 q63 0 142 31q96 41 96 98q0 2 2 29q2 20 0 35q-2 18 -7 21t-173 46q-127 33 -127 82q0 133 407 133h70q35 -2 31 -2q242 0 329 -86q97 -90 150 -391q0 -29 -164 -98q-180 -78 -399 -129q-268 -66 -498 -66q-467 0 -467 475z" />
<glyph unicode="H" horiz-adv-x="1609" d="M0 162q0 31 2 66l2 36q0 696 234 1223q43 12 79 12q145 0 146 -211q0 -61 -12 -155q-10 -66 -19 -134q28 -8 100 -8h31l126 2h-1q21 -1 40 -1q136 0 190 38q25 51 53 211q27 154 59 217q53 100 164 101q82 0 129 -60q39 -49 39 -117q0 -23 -49 -129q-59 -127 -76 -174 q186 -16 373 -30q297 -31 297 -99q0 -82 -129 -139q-98 -45 -164 -45h-432q-27 -51 -52 -104q-33 -76 -32 -132v-497q0 -45 -76 -74q-53 -20 -92 -20q-88 0 -142 75q-43 59 -43 117q0 12 29 217q35 223 45 365q-45 -6 -119 -6q-49 0 -122.5 3t-79.5 3q-168 0 -201 -205 q-10 -190 -18 -381q-18 -207 -150 -207q-129 0 -129 242z" />
<glyph unicode="I" horiz-adv-x="618" d="M6 94q0 176 66 369q31 94 168 416.5t233 605.5q49 39 100 39q37 0 74 -33q1 -19 1 -38q0 -217 -105 -492q-102 -252 -205 -504q-53 -154 -115 -523q-46 -34 -80 -34h-2q-135 0 -135 194z" />
<glyph unicode="J" horiz-adv-x="1187" d="M-20 190q0 53 22 123q29 78 65 78h5q88 -10 131 -67q31 -49 59 -99q45 -49 144 -49q94 0 149 21q90 35 145 137q49 90 103 414q74 446 82 479q14 63 16 135q2 66 5 132.5t40 121.5q33 2 62 2q145 0 198 -72q33 -43 33 -127q0 -307 -160 -788q-166 -496 -331 -645 q-47 -43 -170 -43q-139 0 -340 59q-258 78 -258 188z" />
<glyph unicode="K" horiz-adv-x="1351" d="M-25 -428q0 53 131 549q156 588 297 964q195 516 324 517q82 0 82 -142q0 -139 -100 -420q-106 -297 -111 -358q162 53 481 266q264 174 408 174q43 0 99 -34.5t56 -73.5q0 -115 -387 -312q-264 -121 -528 -241l713 -279q10 -12 10 -26q0 -88 -119 -138q-80 -32 -138 -32 h-3q-133 0 -397 94q-23 6 -390 149q-61 -158 -229 -768q-36 -30 -85 -30h-3q-111 0 -111 141z" />
<glyph unicode="L" horiz-adv-x="1640" d="M0 66q0 6 76 174q86 193 127 323q109 367 200 942q14 96 107 97q39 0 82 -41v-27q0 -563 -244 -1169q41 6 260 43q175 32 198 32h1q268 0 483 -22q426 -47 426 -166q0 -37 -53 -119q-57 -94 -109 -94q6 0 -125 26.5t-288 26.5q-240 0 -545 -64.5t-455 -64.5 q-72 0 -100 14q-41 20 -41 89z" />
<glyph unicode="M" horiz-adv-x="2076" d="M0 55q0 31 129 336q141 340 262 576q158 305 217 305q125 0 199 -189q51 -133 78 -366q12 -123 24 -244q266 190 531 381q485 340 600 340q80 0 133 -86q49 -74 49 -150q0 -20 -4 -34q-25 -76 -186 -432q-150 -332 -174 -433q-4 -16 -5 -43q0 -27 7.5 -96.5t7.5 -105.5 q0 -180 -152 -181q-47 0 -90 53.5t-43 110.5q0 18 6 33l314 1047q10 20 10 26q0 2 -2 2q-4 -2 -15 -14q-240 -203 -479 -408q-413 -329 -552 -329h-1q-158 0 -332 571q-86 -129 -153 -315q-14 -41 -100 -320q-14 -45 -75 -120.5t-89 -75.5q-84 0 -107 59q-8 23 -8 102z" />
<glyph unicode="N" horiz-adv-x="1759" d="M-12 217q0 109 37 199q94 227 315 633q133 246 250 368q16 16 80 25q92 12 108 16q223 -362 285 -993q27 -25 84 -78q119 207 295 629q113 266 147 334q155 286 296 286h1q61 0 78 -51q4 -12 4 -69q0 -86 -153 -445q-166 -389 -336 -665q-211 -342 -338 -343 q-113 0 -238 211q-90 152 -184 408l-90 258q-125 -264 -275 -805q-10 -43 -80.5 -90t-107.5 -47q-92 0 -141 84q-37 61 -37 135z" />
<glyph unicode="O" horiz-adv-x="1384" d="M63 799q92 330 216 538q160 276 339 277q326 0 543 -230q223 -235 223 -604q0 -330 -213 -612q-240 -319 -596 -320q-279 0 -436 162q-149 155 -149 413q0 107 73 376zM293 440q0 -102 33 -200q61 -174 202 -174q221 0 359 182q129 173 143 452q1 13 1 26q0 156 -87 386 q-111 289 -248 289q-113 0 -217 -219q-78 -170 -137 -434q-49 -217 -49 -308z" />
<glyph unicode="P" horiz-adv-x="1337" d="M8 -16q0 57 125 761q20 127 70 390l16 110q14 74 37 117q29 20 86 70q8 2 23 2q39 0 63.5 -37t48.5 -76q315 133 533 164q16 2 37 2q143 0 280 -84q164 -99 164 -246q0 -170 -173 -316.5t-394 -156.5q-18 -1 -39 -1q-62 0 -146 9q-127 12 -178 13q-74 0 -139 -15 q-37 -80 -92 -231q-84 -229 -84 -318v-221q0 -20 -17 -57q-18 -45 -43 -45q-76 0 -127 53t-51 113zM535 1024q0 -39 30 -47q6 -2 45 -2q182 0 346 35q152 33 202 68t50 96q0 112 -215 112h-4q-39 0 -129 -47q-115 -59 -133 -65q-45 -16 -106 -58q-86 -55 -86 -92z" />
<glyph unicode="Q" horiz-adv-x="1492" d="M0 440q0 137 55 355q70 279 189 452q154 225 362 226q354 0 576 -170q252 -195 252 -564q0 -94 -31 -241q-35 -160 -72 -203q86 -43 96 -49q62 -35 109 -82q-20 -55 -96 -82q-49 -14 -152.5 -25.5t-136.5 -23.5q-25 -8 -78 -50t-82 -57q-188 -92 -368 -92 q-295 0 -459 159t-164 447zM313 297q0 -49 47 -113q82 -111 263 -116h2q46 0 120 110q-131 88 -131 123q0 57 101 86q70 20 155 21q27 0 33 -2q51 68 98 194q39 102 39 137v6q-33 281 -92 371q-47 74 -178 94l-188 -2q-117 -37 -199 -372q-70 -283 -70 -537z" />
<glyph unicode="R" horiz-adv-x="1857" d="M8 -393q-1 31 -1 61q0 179 40 338q29 109 131 377q115 295 187 539q-10 6 -91 26q-61 18 -63 33q-1 7 -1 14q0 34 15 84q27 92 27 103q2 0 98 37q66 25 82 47q31 49 64 96q37 41 114 41q12 0 118 -14.5t122 -14.5q18 0 125 41q131 51 223 76q154 41 287 41q160 0 289 -80 q159 -98 159 -276q0 -127 -184 -209q-133 -59 -350 -90q-104 -10 -207 -21q121 -66 242 -129q180 -100 276 -186q131 -119 131 -232q0 -49 -16 -88q-23 -51 -64 -51q-20 0 -120.5 112.5t-122.5 118.5l-594 152q-47 0 -142 25q-123 35 -123 79q0 145 238 254q66 29 270 88 q115 35 174 58q129 51 179 104q-12 35 -95 35q-158 0 -432 -76q-299 -84 -331 -159q-84 -184 -267 -603q-29 -68 -59 -245q-10 -78 -21 -154q-29 -160 -75 -258q-66 -135 -162 -135q-27 0 -70 41z" />
<glyph unicode="S" horiz-adv-x="1449" d="M0 805q0 145 209 325q176 150 428 273q236 113 344 113q152 0 172 -5q77 -18 77 -97q0 -7 -1 -15q-10 -117 -215 -187q-195 -59 -387 -118q-211 -88 -234 -246q211 -31 420 -62q315 -49 483 -145q230 -135 230 -383q0 -176 -240 -307q-178 -98 -465 -160 q-211 -45 -309 -45q-39 0 -156 27q-135 31 -217 65v88q-2 115 109 201l563 -55q223 8 418 127v45q-125 158 -457 202q-262 33 -522 66q-250 66 -250 293z" />
<glyph unicode="T" horiz-adv-x="1193" d="M0 1262q0 88 45 116q31 18 109 19q10 0 44.5 -4t49.5 -7l1222 185q125 -14 248 -27q109 -19 109 -80q0 -63 -139 -110q-86 -31 -160 -39q-346 -41 -760 -154q-2 -33 -18 -84q-20 -63 -25 -80q-51 -201 -104 -401q-102 -412 -103 -508l-6 -250q0 -27 -55 -43 q-41 -12 -66 -12q-112 0 -112 179q0 89 43 286q35 164 61 246q16 47 51 274q39 242 39 319q0 41 -33 58l-354 -19q-10 -2 -18 -2q-68 0 -68 138z" />
<glyph unicode="U" horiz-adv-x="1124" d="M31 979q41 397 53 580q6 0 41 12t63 12q129 0 207 -74.5t78 -195.5q0 -27 -104.5 -458t-104.5 -458q0 -61 15 -82q17 -26 67 -26h4q152 0 326 327q125 231 256 623q61 193 123 385h119q114 -112 114 -192q0 -121 -135 -459q-156 -393 -350 -654q-245 -331 -485 -331h-1 q-164 0 -258 280q-65 190 -65 330q0 24 37 381z" />
<glyph unicode="V" horiz-adv-x="1427" d="M14 942q0 29 27 107q61 133 106 133q10 0 66.5 -17.5t114.5 -17.5q143 0 198 -105q39 -72 58 -270q12 -119 24 -211q27 -184 56 -250q37 33 94 113q72 102 82 115q53 63 243 409q182 330 224 426q33 78 96 99q29 8 105 8h32q41 -3 41 -107q0 -63 -221 -452 q-225 -395 -445 -711q-254 -369 -327 -369q-84 0 -168 254q-43 131 -119 473q-59 254 -80 254q-31 0 -48 25.5t-23 25.5q-4 0 -11 -2q-18 -2 -33 -2q-92 0 -92 72z" />
<glyph unicode="W" horiz-adv-x="2109" d="M-131 1370q0 33 37 98q47 86 106 86q41 0 118 -44t89 -83q55 -186 137 -516q94 -373 136 -518q190 205 378 408q303 303 459 303q129 0 240 -166q45 -68 137 -270q90 61 201 731q6 35 60 88t99 53q70 0 117 -35t47 -88q0 -16 -78 -270q-109 -342 -122 -393 q-72 -244 -105 -334q-78 -227 -164 -377q-18 -31 -110 -31q-145 0 -281 269q-78 186 -158 372q-197 -207 -391 -413q-317 -324 -446 -324q-37 0 -109 33q-86 39 -94 82q-10 59 -82 506q-55 334 -102 532q-10 33 -68 148q-51 96 -51 153z" />
<glyph unicode="X" horiz-adv-x="1472" d="M-10 27q0 72 260 335q178 176 354 353q-150 170 -252 344q-129 215 -129 350q0 49 31 83t57 34q174 0 281 -326q47 -109 137 -317q131 170 260 340q260 303 412 303q37 0 123 -31v-51l-613 -772q70 -68 235 -167t222 -159q98 -100 98 -231q0 -63 -61 -107 q-49 -33 -84 -33q-129 0 -326 168q-186 158 -254 301q-207 -190 -346 -364q-113 -141 -137 -158q-49 -35 -188 -35q-25 0 -56 64q-25 53 -24 76z" />
<glyph unicode="Y" horiz-adv-x="845" d="M-4 1358q0 211 72 297l122 -17q33 -45 33 -125q0 -29 -5 -87t-5 -83q0 -29 4 -47l119 -434q125 84 391 406q238 289 270 293h12q55 0 87 -33q-12 -193 -138 -377q-96 -139 -260 -283q-117 -94 -233 -186q-47 -39 -100 -297q-47 -238 -50 -385q-18 -41 -112 -41 q-68 0 -68 154q0 63 19 260q14 167 14 262v22q-2 57 -71.5 200.5t-71.5 160.5q-29 242 -29 340z" />
<glyph unicode="Z" horiz-adv-x="1609" d="M0 1280q0 229 387 229q319 0 619 -43q518 -74 518 -245q0 -90 -529 -508q-510 -403 -602 -424q78 -14 426 -15l426 15q129 0 252 -35q186 -53 186 -162q0 -61 -118 -94q-86 -25 -176 -25q-301 0 -676 37q-598 57 -611 176v9q0 147 459 516q309 248 598 432 q-386 54 -386 57h1q-59 0 -259 -18.5t-191 -18.5q-104 0 -189 21q-135 29 -135 96z" />
<glyph unicode="\" horiz-adv-x="663" d="M-41 1372q0 -13 8 -29q35 -76 389 -745q350 -662 354.5 -664t51.5 -43q39 8 82 31q18 39 12 55q-133 256 -295 598q-27 80 -82 181q-25 49 -114 184q-41 55 -95 186q-8 39 -59 150q-2 2 -8 35q-6 23 -45 69q-8 8 -51.5 19.5t-79.5 11.5q-68 0 -68 -39z" />
<glyph unicode="^" horiz-adv-x="804" d="M0 1284q0 -12 2 -20q8 -23 27 -33q68 -37 116 -17q10 4 103 76q41 31 133 96q37 37 88 103q12 20 25.5 73.5t7.5 59.5q-8 12 -15 25q-16 18 -51 14q-37 -2 -106 -49q-61 -41 -90 -72q-45 -49 -101 -92q-32 -27 -104 -121zM375 1591q2 -37 45 -110q37 -61 65 -92 q47 -49 88 -107q25 -33 115 -111l41 -36q39 0 55 26q41 66 23 115q-4 10 -70 106q-31 43 -90 140q-37 39 -98 94q-18 12 -70.5 27.5t-60.5 9.5q-12 -6 -25 -13q-18 -14 -18 -49z" />
<glyph unicode="_" horiz-adv-x="1122" d="M20 86q0 25 21 39q10 4 59 22q104 37 244 37q133 0 391 -43q35 -6 135 0q113 6 172 0q18 -2 40 -25.5t28 -41.5q23 -61 23 -58q0 -6 -27 -16q-162 -59 -309 -51q-193 10 -420 37q-197 23 -236 22q-47 0 -63 -12q-18 8 -41 24q-16 43 -17 66z" />
<glyph unicode="`" horiz-adv-x="2048" d="M907 1251q0 -14 15.5 -38.5t21.5 -24.5q72 0 82 26q16 66 39 144q4 10 4 143q0 17 -78 21q-18 -29 -30 -56q-33 -61 -35 -94t-10.5 -71.5t-8.5 -49.5z" />
<glyph unicode="a" horiz-adv-x="1622" d="M-82 98q0 104 516 578q305 270 610 541q66 59 199 59q84 0 105 -62q8 -25 8 -118l-33 -408h229h4q33 0 50 -33q-23 -119 -72 -155q-41 -29 -150 -29q-68 0 -102 10q-20 -133 -41 -266q-55 -242 -162 -242q-84 0 -84 156q0 84 24.5 212t24.5 122q-4 4 -45 -5t-49 -9 q-29 0 -200 -29q-207 -33 -314 -64q-33 -45 -96.5 -127t-126.5 -168q-74 -88 -164 -88q-131 0 -131 125zM674 635l401 80q2 53 2 95q0 83 -8 118q-8 39 -35 41q-37 4 -49 16q-61 -45 -166 -170q-72 -90 -145 -180z" />
<glyph unicode="b" horiz-adv-x="1515" d="M0 260q0 76 0 72q4 35 33 108q57 109 170 351q12 27 28 124q16 84 41 123q20 29 183 66q338 78 551 78q368 0 368 -149q0 -42 -48 -127t-95 -124q350 -67 350 -401q0 -82 -37 -180q-98 -94 -463 -203q-399 -119 -704 -119q-242 0 -309.5 72t-67.5 309zM184 229 q236 55 383 56q131 0 131 -43q0 -29 -75 -76q-41 -23 -82 -45q850 104 850 231q0 43 -88 109q-68 53 -107 67q-94 35 -354 35q-127 0 -202 -18.5t-144 -34.5q-57 -10 -113 -21q-66 -14 -96 -32q-43 -31 -77 -109q-28 -63 -28 -102q0 -9 2 -17zM358 754h193q145 8 303.5 65 t232.5 129l-18 19h-182h-9q-90 0 -266 -39q-254 -57 -254 -140v-34z" />
<glyph unicode="c" horiz-adv-x="1677" d="M2 252q0 182 252 424q211 203 512 368q285 160 412 160q94 0 94 -114q0 -49 -6 -64q-10 -25 -54 -63q-10 -8 -282 -138q-285 -133 -441 -256q-227 -180 -227 -362q0 -90 113 -127q66 -23 151 -23q139 0 326 39q152 31 219 60q113 61 350 172q156 63 164 63q25 0 75 -37.5 t50 -64.5t-123 -80q-715 -307 -1126 -307q-459 0 -459 350z" />
<glyph unicode="d" horiz-adv-x="1646" d="M8 47q0 123 80 386t80 372q0 66 -18 117q17 26 64 26h3q25 0 53 -8q25 33 41 119q18 96 33 127q29 59 94 59q18 0 41 -6q31 -20 31 -74v-8q0 -37 8 -59q233 121 326 143q61 14 272 14q252 0 389 -49q248 -90 248 -342q0 -283 -608 -559q-188 -86 -610 -221 q-98 -31 -269 -100q-94 -39 -160 -39q-63 0 -83 26q-14 18 -15 76zM250 231q248 70 733 218q563 180 563 368q0 129 -213 201q-152 49 -291 49q-221 0 -401 -94q-61 -31 -123 -64q-72 -39 -82 -57q-59 -119 -108 -307q-39 -156 -78 -314z" />
<glyph unicode="e" horiz-adv-x="1095" d="M-6 184q0 162 147 590q141 406 193.5 453t322.5 47q123 0 185 -19q90 -29 164 -116l-19 -68q-2 -3 -41.5 -3t-116.5 3q-33 1 -64 1q-132 0 -208 -21q-145 -43 -145 -166v-56h20q103 0 348 17q283 18 359 18q59 0 121.5 -23.5t62.5 -58.5q0 -21 -27 -41q-201 -51 -548 -94 q-272 -33 -355 -78q-113 -57 -113 -202q0 -15 1 -31q10 -6 36 -6q25 0 77 6t65 6q20 0 217.5 47t216.5 47q59 0 86 -10q47 -20 88 -92q-68 -127 -358 -252q-276 -119 -463 -119q-127 0 -185 45q-68 53 -67 176z" />
<glyph unicode="f" horiz-adv-x="1116" d="M16 53q0 90 78 235.5t78 176.5q0 18 -34 60t-34 83q0 57 82 70l90 8q80 193 162 385q57 131 128 168t268 37q6 0 97 7t154 7q221 0 222 -80q0 -70 -64.5 -122t-122.5 -52l-418 -22q-98 -8 -155 -109q-39 -69 -39 -113q0 -10 2 -18l569 68q144 0 144 -70q0 -127 -99 -145 q-39 -8 -227 -37q-137 -20 -283 -60q-57 -14 -112 -28q-76 -18 -117 -43q-51 -31 -92 -176q-31 -127 -62 -252q-41 -129 -100 -129q-55 0 -88 61q-27 47 -27 90z" />
<glyph unicode="g" horiz-adv-x="1335" d="M4 377q0 162 164 387q152 213 362 369q218 161 371 161h2q94 0 180 -47q100 -55 101 -141q0 -78 -37 -148q-42 -81 -111 -81h-2q-68 0 -112 47q-16 16 -60 84q-29 47 -55 47q-100 0 -332.5 -241t-232.5 -351q0 -190 254 -191q186 0 186 76q0 25 -122 69t-122 91 q0 82 199 102q39 4 207 4q201 0 274 -61q129 -106 129 -306q0 -24 -133 -83q-150 -66 -330 -111q-223 -55 -405 -55q-375 0 -375 379z" />
<glyph unicode="h" horiz-adv-x="1376" d="M4 0q0 25 2 54l2 28q0 557 185 977q43 12 77 12q129 0 129 -180q0 -33 -12 -158q33 -10 156 -10q193 0 256 102q20 29 53 189q20 102 106 102q66 0 103 -47q33 -39 33 -92q0 -20 -41 -105q-47 -102 -60 -139q150 -12 297 -24q240 -25 240 -78q0 -68 -105 -113 q-78 -35 -129 -35h-348q-68 -145 -67 -188v-399q0 -35 -60 -60q-43 -16 -73 -16q-70 0 -113 61q-35 47 -35 94q0 10 25 172q25 180 32 293q-33 -6 -92 -6q-41 0 -99 3t-65 3q-135 0 -161 -164q-6 -154 -13 -305q-14 -166 -121 -166q-102 0 -102 195z" />
<glyph unicode="i" horiz-adv-x="534" d="M4 156q0 184 111 446q209 502 264 666q38 30 76 30h2h2q29 0 57 -24q1 -25 1 -50q0 -174 -60 -374q-70 -203 -142 -404q-80 -233 -108 -403q-61 -43 -94 -43q-109 0 -109 156z" />
<glyph unicode="j" horiz-adv-x="745" d="M-37 217q0 29 17 62q18 40 44 40h1h3q32 0 89 -47q59 -49 143 -49q57 0 74 6q39 16 75.5 85t100.5 261q63 186 90 306q6 25 12 170q2 43 27 77h9q153 0 153 -229q0 -197 -103 -506q-104 -315 -211 -411q-31 -29 -110 -29q-68 0 -232 92q-182 98 -182 172z" />
<glyph unicode="k" horiz-adv-x="1013" d="M-6 -125q0 35 90 365q104 391 203 641q131 342 219 342q39 0 69 -39q25 -31 25 -54q0 -92 -72 -256q-74 -174 -77 -215q106 35 329 168q180 109 279 109q23 0 44 -48t21 -81q0 -76 -286 -209q-190 -82 -381 -164l491 -131q25 -12 47 -27q43 -23 43 -32q0 -61 -26 -105 q-23 -35 -43 -35q-98 0 -340 60q-217 53 -334 98q-59 -145 -166 -461q-25 -18 -59 -18q-76 0 -76 92z" />
<glyph unicode="l" horiz-adv-x="1355" d="M6 12q0 4 60 140q70 154 100 260q88 291 162 751q12 76 86 76q31 0 65 -33v-18q0 -451 -194 -938q366 57 366 61h-2q217 0 387 -18q342 -37 342 -131q0 -31 -43 -96q-45 -74 -86 -74q4 0 -100.5 20.5t-230.5 20.5q-190 0 -435 -52.5t-364 -52.5q-59 0 -80 13 q-33 18 -33 71z" />
<glyph unicode="m" horiz-adv-x="1718" d="M-16 141q0 53 204 500q213 473 283 473q100 0 160 -151q41 -106 61 -293q10 -96 21 -195q211 152 424 305q387 270 479 271q63 0 108 -68q37 -59 37 -121q0 -14 -4 -26q-18 -61 -147 -347q-121 -266 -140 -346q-4 -12 -4 -34q0 -20 6.5 -76t6.5 -84q0 -145 -121 -146 q-39 0 -73 43t-34 88q0 14 4 27l252 838q10 23 6 22q-4 -2 -10 -10q-193 -164 -385 -328q-330 -264 -442 -264q-127 0 -266 457q-68 -102 -121 -252q-12 -33 -82 -256q-10 -35 -59.5 -95.5t-71.5 -60.5q-68 0 -84 47q-8 18 -8 82z" />
<glyph unicode="n" horiz-adv-x="1472" d="M4 176q0 84 29 158q74 182 252 506q106 197 200 295q12 12 64 20q74 8 86 12q178 -289 227 -794q23 -18 68 -62q96 166 237 502q88 213 117 268q125 229 238 230q49 0 61 -41q4 -11 4 -58q0 -68 -123 -354q-133 -311 -268 -532q-170 -274 -272 -275q-88 0 -189 170 q-72 121 -147 326q-37 102 -72 205q-100 -209 -219 -643q-10 -33 -65.5 -71t-86.5 -38q-74 0 -112 66q-29 51 -29 110z" />
<glyph unicode="o" horiz-adv-x="1128" d="M-6 436q0 82 59 279q74 240 172 395q129 201 273 201q276 0 450 -142q195 -157 195 -440q0 -260 -187 -496q-207 -260 -493 -260q-223 0 -348 131q-121 125 -121 332zM219 434q0 -74 25 -133q43 -115 157 -115q158 0 281 197q98 160 98 264q0 -2 15.5 78t15.5 141 q0 231 -211 231q-17 0 -35 -1q-131 -10 -248 -297q-98 -240 -98 -365z" />
<glyph unicode="p" horiz-adv-x="1153" d="M4 -117q0 47 98 611q18 100 58 311q6 45 14 90q10 57 29 92q23 16 67 55q6 2 19 2q31 0 51 -29.5t41 -60.5q252 106 424 131q18 2 37 2q91 0 198 -55q150 -82 150 -209q0 -133 -134 -231t-317 -107h-21q-52 0 -134 7q-113 10 -158 10q-66 0 -119 -13q-12 -31 -59 -204 q-53 -203 -53 -275v-176q0 -16 -13 -45q-16 -37 -37 -37q-59 0 -102 45q-39 39 -39 86zM426 717q0 -39 61 -39q145 0 275 27q121 27 162 54.5t41 76.5q0 90 -177 90q-31 0 -102 -37q-92 -47 -106 -53q-37 -12 -86 -45q-68 -45 -68 -74z" />
<glyph unicode="q" horiz-adv-x="1206" d="M-4 428q0 211 104 471q141 354 381 354q283 0 459 -137q203 -154 203 -448q0 -76 -27 -195q-27 -127 -55 -162q68 -35 78 -39q47 -28 86 -65q-23 -59 -138 -80q-86 -12 -172 -25q-18 -8 -60 -40.5t-67 -45.5q-150 -73 -290 -73h-4q-236 0 -367 127t-131 358zM233 371 q0 -35 58 -115q82 -115 203 -127h3q36 0 95 90q-104 70 -105 98q0 53 109 74q60 12 93 12q18 0 28 -4q51 175 51 263q0 236 -156 378l-57 19q-172 -18 -258 -273q-63 -186 -64 -415z" />
<glyph unicode="r" horiz-adv-x="1245" d="M-16 -78v33q0 124 26 233q18 72 88 252q76 197 123 359q-49 12 -102 39v7q0 23 10 58q16 61 18 70q51 14 119 55q23 33 45.5 62.5t73.5 29.5q8 0 79 -10t81 -10q2 0 152.5 52t271.5 52q147 0 202 -14q110 -33 110 -134q0 -7 -1 -14q-16 -260 -434 -309q147 -88 274 -196 q190 -164 191 -273q0 -37 -19 -94q-20 -72 -47 -72q-14 0 -97 106.5t-97 110.5l-457 238q-31 0 -92 16q-82 23 -82 54q0 96 158 170q43 18 180 59q76 20 116 37q86 33 117 69q-8 23 -61 23q-96 0 -295 -76q-205 -76 -227 -129q-18 -41 -48 -161.5t-65 -204.5 q-18 -45 -39 -164q-14 -80 -59 -183q-74 -167 -165 -167h-1q-16 0 -47 26z" />
<glyph unicode="s" horiz-adv-x="1142" d="M10 668q0 106 154 239q131 113 317 203q174 84 254 84q174 0 174 -123t-151 -160q-145 -18 -289 -39q-162 -33 -176 -147q156 -25 313 -51q233 -43 361 -121q174 -109 174 -291q0 -186 -348 -299q-244 -80 -404 -80q-29 0 -115 19q-102 23 -161 49v65q0 39 20 99 q31 78 78 90h426q4 0 40 -4t62 -4q119 0 160 73v33q-94 117 -334 137q-188 10 -377 23q-178 37 -178 205z" />
<glyph unicode="t" horiz-adv-x="1017" d="M2 1116q0 70 37 92q25 16 86 17q8 0 35.5 -4t40.5 -4l979 147q27 2 51 2q86 0 127 -23q27 -16 72 -77q8 -10 8 -23q0 -47 -115 -102q-90 -45 -129 -49q-82 -10 -297 -13q-166 -2 -264 -28q0 -29 -3 -55.5t-20 -65.5q-10 -20 -75 -322q-74 -328 -74 -405v-228 q-18 -43 -146 -43q-90 0 -90 148q0 68 35 225q29 131 49 197q12 39 43 221q33 195 33 258q0 20 -23 37l-294 -70q-5 -1 -9 -1q-57 0 -57 169z" />
<glyph unicode="u" d="M0 494q0 16 29 303q33 317 43 463q4 0 32.5 10t51.5 10q176 0 176 -262q0 -23 -67.5 -273.5t-67.5 -273.5q0 -59 30.5 -124.5t65.5 -65.5q170 0 373 510q92 260 182 522h96q90 -91 90 -154q0 -106 -98 -371q-119 -315 -272 -522q-199 -264 -406 -264q-131 0 -207 225 q-51 154 -51 267z" />
<glyph unicode="v" horiz-adv-x="1200" d="M51 868q0 37 15 80q39 76 120 76q25 0 68 -6q53 -8 72 -10q37 -2 71.5 -84t46.5 -209q8 -96 19 -170q20 -147 45 -199q45 39 164 182q55 68 178 260q133 209 151 273q18 55 74 127q70 92 130 92h3q35 -2 35 -86q0 -86 -350 -649q-358 -575 -447 -576q-66 0 -133 203 q-35 106 -96 379q-45 203 -61.5 203t-16.5 6t29 26q-2 0 -6 -2q-12 -1 -23 -1q-88 0 -88 85z" />
<glyph unicode="w" horiz-adv-x="1632" d="M-166 1108q0 27 29 80q38 67 85 67h1q33 0 94 -34.5t72 -67.5q70 -276 217 -825q152 162 303 325q244 242 369 242q100 0 190 -133q35 -53 111 -217q70 51 159 585q4 29 48 72t81 43q53 0 92 -28.5t39 -69.5q0 -14 -63 -217q-86 -274 -98 -316q-57 -195 -84 -266 q-61 -182 -131 -303q-14 -25 -88 -25q-117 0 -224 216q-63 150 -127 299q-158 -166 -313 -332q-254 -258 -358 -258q-29 0 -86 26q-68 31 -74 66q-41 281 -150 829q-6 27 -53 119q-41 76 -41 123z" />
<glyph unicode="x" horiz-adv-x="1126" d="M-61 80q0 55 208 268q141 141 283 281q-119 137 -201 274q-104 174 -104 283q0 37 27 67q23 25 45 25q139 0 225 -260q37 -86 108 -254q104 135 209 272q207 242 328 242q31 0 100 -25v-41l-491 -618q55 -53 187 -133t179 -127q78 -80 78 -184q0 -51 -49 -84 q-39 -27 -67 -27q-102 0 -261 135q-150 125 -202 240q-166 -154 -277 -293q-90 -113 -110 -125q-39 -27 -152 -27q-20 0 -43 49q-20 43 -20 62z" />
<glyph unicode="y" horiz-adv-x="641" d="M-16 1032q0 201 53 264l84 11q45 -47 54 -62.5t22 -68.5l-7 -447q70 47 183 182q139 164 184 207q104 98 191 99q51 0 88 -41q-10 -147 -148 -297q-59 -63 -266 -234q-156 -127 -184 -199q-16 -43 -23 -436q-20 -43 -80 -43q-68 0 -78 195q0 178 -2 358 q-2 49 -28.5 112.5t-26.5 61.5q0 27 -8 145.5t-8 192.5z" />
<glyph unicode="z" horiz-adv-x="1314" d="M-41 834q0 182 309 182q256 0 494 -33q416 -59 416 -197q0 -70 -420 -327q-393 -240 -477 -260q33 -6 100 -6q40 0 92 2q209 6 207 6l340 10q115 0 213 -31q137 -43 137 -127q0 -49 -104 -49q-35 0 -85.5 5t-52.5 5q4 0 -176 -12t-321 -12q-555 0 -555 178q0 82 149 211 q109 94 301 217q115 72 232 141q-45 8 -242 8q-47 0 -208 -26.5t-154 -26.5q-70 0 -132.5 43t-62.5 99z" />
<glyph unicode="|" horiz-adv-x="278" d="M12 467q0 104 31 448q33 360 37 662q35 51 82 68q20 6 28.5 -29t14.5 -37q59 -158 59 -340q0 -113 -33 -338q-33 -231 -34 -352q-4 -281 30 -522q-6 -8 -6 -35q0 -18 -22.5 -25.5t-42.5 -7.5q-55 0 -74 61q-8 45 -16 89q-53 164 -54 358z" />
<glyph unicode="~" horiz-adv-x="796" d="M18 1524q1 10 7 14q27 23 53 47q51 35 119 35q35 0 71 -8q90 -20 152 -60q51 -33 72 -32q68 0 131 49q27 20 63 20q25 0 37 -14q53 -66 53 -80q0 -12 -12 -18q-35 -20 -100 -45q-82 -33 -123 -33q-10 0 -19 2q-125 57 -282 117q-12 0 -50 -34t-73 -40q-37 -6 -70 26 q-29 27 -29 54z" />
<glyph unicode="&#xa1;" horiz-adv-x="643" d="M4 55q0 203 84 402q66 154 248 532q115 233 102 268q29 31 37 31q72 0 94 -47q16 -29 17 -102q0 -137 -74 -359q-70 -207 -164 -370q-16 -31 -59 -174q-45 -154 -70 -207q-8 -16 -38.5 -28.5t-49.5 -12.5q-127 -1 -127 67zM438 1485q1 -47 56 -94q39 -35 69 -35 q55 0 68 104q14 115 -62 129q-51 -4 -88 -33q-43 -31 -43 -71z" />
<glyph unicode="&#xa3;" horiz-adv-x="1239" d="M0 610v47q0 23 49 102t88 87q111 23 221 211q92 166 185 332q111 174 227 174q72 0 172 -170q92 -156 92 -217q0 -31 -24.5 -52.5t-55.5 -21.5q-14 0 -106 45t-107 45q-158 0 -213 -307q39 -16 101 -56v-98q-98 -31 -142 -135q-25 -63 -43 -207.5t-41 -200.5 q27 -8 152 -8q217 0 293 15q37 6 108 55q68 43 117 43q51 0 106.5 -34t55.5 -83q0 -186 -365 -186q-4 0 -92 -2h-155q-621 0 -592 96q0 35 2 70q4 25 30 24q14 0 37 -6q27 -8 92.5 148.5t65.5 238.5v51q-16 16 -43 17q-20 0 -72.5 -14.5t-81.5 -14.5q-33 0 -61 12z" />
<glyph unicode="&#xa6;" horiz-adv-x="303" d="M10 567q0 -287 56 -458q8 -43 16 -89q18 -61 74 -61q20 0 42.5 7t22.5 26q0 27 6 35q-35 242 -30 522q2 96 16 219q-33 18 -55 18q-47 0 -47 -45v-2q2 2 4 13l-84 18q-20 -29 -21 -203zM18 1077q0 66 30 233t32 267q35 51 82 68q20 6 28.5 -29t14.5 -37q45 -119 45 -266 q0 -76 -47 -408l-64 -6q2 23 -22 23q-6 0 -22.5 -2t-22.5 -2q-29 0 -27 26q-27 55 -27 133z" />
<glyph unicode="&#xa7;" horiz-adv-x="823" d="M10 848q0 -47 21 -121q25 -84 57 -121q39 -43 126 -83t144 -38q162 4 182.5 -23.5t20.5 -58.5t-18 -65q-10 -23 -21 -43l-45 -45q-29 -31 -63 -31q-41 0 -107 49q-14 10 -35 11q-51 -1 -127 -52q6 -29 21 -51q35 -55 104 -72q129 -31 211 -30q61 0 86 18q117 80 117 187 q0 135 2 118q-6 68 -49 99q-80 45 -184 104q-6 4 -54 8q-53 6 -120 37q-53 23 -62 33q-2 2 -33 65q-20 41 -22 93q-2 25 -2 49q-2 14 76 51q86 39 139 35q14 -2 14 6q0 18 -101.5 87t-107.5 64q-18 -10 -37 -22q-33 -25 -51 -55q-82 -135 -82 -203zM84 1231q6 -68 49 -96 q90 -63 140.5 -96t177.5 -97q68 -25 86 -44t26 -75q10 -68 8 -98q-4 -27 -4 -23q4 -18 -26 -57q-37 -49 -88 -45q-18 2 -19 -4q0 -14 75 -57t81 -39q18 12 37 22q33 25 51 56q82 135 82 202q0 47 -21 121q-25 84 -57 123q-39 43 -126 82t-144 37q-162 -4 -183 22 q-57 78 -57 103q0 16 8 32q14 39 31.5 77t50.5 38q12 0 27 -4q88 -25 203 -113q10 -6 20 -6q47 0 113 109q-6 29 -21 51q-35 55 -104 72q-129 31 -211 30q-61 0 -86 -18q-117 -80 -117 -186q0 -135 -2 -119z" />
<glyph unicode="&#xa8;" horiz-adv-x="2037" />
<glyph unicode="&#xa9;" horiz-adv-x="1468" d="M10 360q0 -14 19 99q6 27 0 98q-6 63 6 102q33 119 248 345q113 119 159 149q23 14 129 51q45 16 113 17q6 0 45 3t49 3q246 0 445 -129q237 -154 237 -414q0 -328 -311 -522q-250 -156 -528 -156q-166 0 -351 74q-260 100 -260 280zM246 360q0 -113 151 -186 q121 -57 215 -57q215 0 404 155q209 174 209 418q0 160 -135.5 294t-307.5 134q-12 0 -86 -18q-86 -18 -110 -23q-94 -106 -189 -211q-119 -145 -129 -243q2 -70 -4 -179q-18 -109 -18 -84zM399 592q0 113 199 194q158 66 268 66q23 0 37 -39q12 -29 12 -53q0 -49 -98 -66 q-180 -31 -182 -30q-98 -33 -98 -117q0 -68 198 -68q29 0 61.5 2t30.5 2q8 0 33 4.5t37 4.5q18 0 21 -33q2 -51 12 -76q-84 -16 -119 -16q-133 0 -240 36q-172 57 -172 189z" />
<glyph unicode="&#xab;" horiz-adv-x="905" d="M6 692q-10 -61 17 -92q47 -31 131 -86q33 -25 190 -119q39 -18 100 -43q18 -4 62 0q45 4 49 10.5t11 13.5t7 21q0 10 -6 23q-10 29 -65 69q-45 37 -74 52q-88 31 -207 82q-28 18 -139 88l-41 16q-14 -4 -35 -35zM10 700q-4 -31 17 -45q51 -35 90 -24q49 31 135 82 q35 20 186 123q33 29 82 73q10 14 25.5 55.5t11.5 47.5l-8 20q-12 16 -39 19q-29 0 -90 -31q-51 -27 -78 -47q-66 -68 -162 -154q-28 -16 -139 -88zM315 717q-12 -59 17 -90q47 -31 129 -86q35 -25 192 -119q39 -18 101 -43q18 -4 61 0q43 2 48 8t12.5 14.5t7.5 22.5 q0 10 -6 22q-12 29 -66 70q-45 37 -76 51q-88 31 -207 82q-28 18 -137 88l-43 17q-14 -4 -33 -37zM322 725q-2 -33 18 -47q49 -35 90 -25q74 20 133 80q35 35 189 123q33 29 79 76q12 14 27.5 55t11.5 47q-6 10 -10 23q-10 14 -37 16q-31 0 -92 -31q-51 -25 -76 -47 q-66 -68 -161 -151q-29 -18 -140 -88z" />
<glyph unicode="&#xad;" horiz-adv-x="929" d="M88 764q0 -25 25.5 -60.5t48.5 -46.5q70 -6 194 -18q51 -6 281 -18q53 2 135 12q23 6 69 35.5t46 38.5q0 2 3 12t3 18q0 23 -26.5 44.5t-110.5 37.5q-72 12 -113 10q-12 0 -137 -18q-113 -14 -139 -12q-41 4 -205 16l-56 -6q-18 -20 -18 -45z" />
<glyph unicode="&#xaf;" horiz-adv-x="1122" d="M-4 1546q0 27 22 39q8 6 58 23q104 39 243 39q133 0 392 -45q35 -6 135 0q113 6 172 2q18 -2 39.5 -27t27.5 -43q23 -61 23 -55q0 -9 -27 -19q-162 -57 -309 -51q-193 10 -420 37q-197 25 -235 24q-47 0 -64 -14q-18 8 -41 25q-16 43 -16 65z" />
<glyph unicode="&#xb0;" horiz-adv-x="526" d="M25 1391q0 27 10 57q29 76 98.5 126t142.5 50q31 0 58 -10q74 -27 125 -80q59 -59 59 -127q0 -26 -10 -53q-49 -137 -217 -137q-66 0 -125 22q-141 51 -141 152zM186 1407q-12 -35 5.5 -59.5t54.5 -24.5q33 0 65.5 25.5t42.5 52.5q6 16 6 33q0 29 -18 52t-45 23 q-33 0 -74 -47q-29 -35 -37 -55z" />
<glyph unicode="&#xb4;" horiz-adv-x="929" />
<glyph unicode="&#xb8;" horiz-adv-x="421" />
<glyph unicode="&#xbb;" horiz-adv-x="905" d="M0 1006q0 -10 6 -25q12 -27 66 -68q45 -37 75 -51q88 -31 207 -82q29 -18 140 -88l41 -16q14 4 32 35q12 59 -16 92q-45 31 -129 86q-35 25 -193 119q-37 18 -100 43q-16 4 -59 0q-45 -4 -49.5 -10.5t-12.5 -14.5t-8 -20zM16 391q6 -10 13.5 -23.5t36.5 -15.5q29 0 90 31 q51 25 75 47q66 66 162 152q28 18 139 88l33 30q2 31 -18 48q-49 35 -90 24q-47 -31 -133 -82q-35 -23 -189 -125q-33 -27 -80 -71q-12 -14 -27.5 -55.5t-11.5 -47.5zM334 1020q0 -10 4 -23q12 -29 65 -69q45 -37 76 -51q88 -31 207 -82q28 -18 139 -88l41 -17q14 4 33 35 q12 61 -14 92q-47 31 -131 86q-35 25 -193 119q-37 18 -98 43q-18 4 -62 0q-45 -4 -49 -10t-11 -13.5t-7 -21.5zM350 406q4 -10 8 -21q10 -16 39 -18q29 0 90 30q51 27 76 47q66 68 164 154q26 16 137 88l33 31q2 31 -18 45q-49 35 -91 24q-47 -31 -133 -81 q-35 -20 -188 -123q-33 -29 -80 -74q-10 -14 -26.5 -55t-10.5 -47z" />
<glyph unicode="&#xbf;" horiz-adv-x="698" d="M-2 262q0 125 61 225q123 197 174 310q14 33 46 192q29 152 63 221q152 -31 152 -168q0 -96 -163 -326.5t-163 -254.5q0 -68 52 -136.5t106 -68.5q86 0 191.5 86t127.5 86q57 0 57 -57q0 -63 -180 -199q-170 -125 -211 -125q-129 0 -217 53q-96 60 -96 162zM246 1483 q0 61 59 102q49 35 92 35q86 0 105 -51q4 -80 -35 -138.5t-98 -58.5q-37 0 -80 33t-43 78z" />
<glyph unicode="&#xc0;" horiz-adv-x="1912" d="M-123 4q0 131 645 723q383 338 764 676q39 33 117 55q72 18 133 19q102 0 129 -76q12 -33 12 -150l-41 -508h285q43 2 68 -43q-27 -145 -78 -174q-29 -16 -174 -16q-121 0 -154 8q-10 -96 -22 -190q-27 -197 -72 -314q-63 -166 -158 -166q-137 0 -137 324 q0 88 11.5 200.5t11.5 104.5q-12 12 -35 12q-41 0 -244 -28q-250 -35 -381 -74q-10 -2 -68 -92q-66 -102 -83 -123q-80 -106 -160 -213q-90 -111 -203 -111q-166 0 -166 156zM823 676l402 80q0 227 -66 288q-76 -55 -180 -178q-78 -96 -156 -190zM1157 1710q4 -59 39 -84 q53 -16 147 -49q43 -25 115 -41q51 -12 101 -25q86 -16 108 -14q18 0 59 15.5t43 21.5l7 10q6 10 6 21q0 14 -13 30q-18 23 -81 50q-53 23 -86 28q-92 8 -222 27q-30 10 -155 49l-45 6q-25 -18 -23 -45z" />
<glyph unicode="&#xc1;" horiz-adv-x="1931" d="M-123 4q0 131 645 723q383 338 764 676q39 33 117 55q72 18 133 19q102 0 129 -76q12 -33 12 -150l-41 -508h285q43 2 68 -43q-27 -150 -91 -192q-49 -35 -186 -35q-84 0 -129 10q-10 -90 -22 -182q-27 -184 -72 -297q-63 -156 -158 -156q-150 0 -149 355q0 70 6 153.5 t6 77.5q-6 8 -25 8q-37 0 -251 -34q-258 -41 -390 -80q-10 -2 -53 -64q-53 -74 -69 -92q-80 -106 -160 -213q-90 -111 -203 -111q-166 0 -166 156zM823 676l402 80q-8 78 -17 155q-10 96 -49 133q-76 -55 -180 -178q-78 -96 -156 -190zM1053 1493q14 -37 23 -46t44 -9 q80 0 150 28q82 45 198 99q33 8 160 45l39 18q12 29 -4 49q-37 49 -78 49q-16 2 -69 -14q-76 -23 -82 -24q-41 -10 -217 -64q-39 -14 -99 -45q-14 -10 -40.5 -45t-24.5 -41z" />
<glyph unicode="&#xc2;" horiz-adv-x="1902" d="M-123 4q0 131 645 723q383 338 764 676q39 33 117 55q72 18 133 19q102 0 129 -76q12 -33 12 -150l-41 -508h285q43 2 68 -43q-27 -150 -91 -192q-49 -35 -186 -35q-84 0 -129 10q-10 -90 -22 -182q-27 -184 -72 -297q-63 -156 -158 -156q-150 0 -149 355q0 70 6 153.5 t6 77.5q-6 8 -25 8q-37 0 -251 -34q-258 -41 -390 -80q-10 -2 -53 -64q-53 -74 -69 -92q-80 -106 -160 -213q-90 -111 -203 -111q-166 0 -166 156zM823 676l402 80q-8 78 -17 155q-10 96 -49 133q-76 -55 -180 -178q-78 -96 -156 -190zM1059 1452q2 -12 6 -25q8 -18 35 -18 q29 -2 90 18.5t86 36.5q51 33 80 72q20 27 147 70l37 26q6 31 -12 47q-45 43 -88 37q-49 -25 -142 -65q-37 -16 -102 -39q-35 -23 -88 -64q-12 -12 -32.5 -51t-16.5 -45zM1411 1671q-4 -59 29 -88q49 -25 141 -67q37 -18 115 -74q39 -14 104 -29q18 0 61.5 9.5t46.5 15.5 t8 14t5 18q0 12 -8 29q-16 25 -74 60q-51 29 -82 38q-47 10 -125 35q-30 15 -149 70l-43 10q-14 -6 -29 -41z" />
<glyph unicode="&#xc4;" horiz-adv-x="1816" d="M0 -221q0 63 92 180q14 18 135 150q342 379 1362 1232q29 25 129 48q86 20 117 20q106 0 137 -92q14 -45 15 -170l-50 -553q16 -2 195 0q117 2 195 -35q-2 -133 -60 -186q-47 -41 -147 -41q-33 0 -118 7t-130 5q-6 -127 -39 -338q-25 -119 -47 -235q-53 -168 -180 -168 q-76 0 -90 16q-47 61 -54 148q-8 94 -8 231l8 289q-6 6 -22 4q-29 -4 -37 -4q-350 0 -625 -78q-20 -6 -190 -240q-61 -88 -125 -174q-86 -113 -162 -164q-43 -29 -119 -28q-182 0 -182 176zM1020 508l457 39l12 190q2 96 -8 174q-8 12 -72 13q-90 -68 -211 -207 q-88 -104 -178 -209zM1333 1518q0 63 53 96q39 25 87 24q139 1 139 -120t-133 -121q-61 0 -103.5 33.5t-42.5 87.5zM1915 1548q0 47 63 78q49 25 95 25q59 0 89.5 -38t30.5 -89q0 -57 -41 -74q-16 -6 -73 -6q-61 0 -107 22q-57 29 -57 82z" />
<glyph unicode="&#xc8;" horiz-adv-x="1390" d="M-2 127q0 201 186 737q176 508 238 561q70 63 405 64q174 0 222 -12q102 -25 192 -134v-108q-205 -2 -407 -4q-244 -27 -244 -244v-55q129 -2 411 4q317 8 398 8q76 0 142.5 -30.5t66.5 -79.5q-1 -21 -13 -41q-268 -57 -649 -99q-258 -27 -340 -76q-109 -66 -174 -280 q25 -14 150 -14q25 0 271.5 59t270.5 59q74 0 107 -16q57 -25 110 -113q-86 -160 -448 -315q-346 -147 -578 -148q-160 0 -233 56q-84 66 -84 221zM522 1724q4 -59 39 -84q53 -18 150 -49q43 -25 114 -43q49 -10 101 -22q86 -16 108 -15q18 0 59.5 14.5t43.5 22.5l5 10 q5 11 5 19q0 14 -12 31q-18 25 -80 51q-53 23 -86 29q-94 8 -221 26q-33 10 -158 49l-43 4q-27 -16 -25 -43z" />
<glyph unicode="&#xc9;" horiz-adv-x="1390" d="M-2 127q0 201 186 737q176 508 238 561q70 63 405 64q174 0 222 -12q102 -25 192 -134v-108q-205 -2 -407 -4q-244 -27 -244 -244v-55q129 -2 411 4q317 8 398 8q76 0 142.5 -30.5t66.5 -79.5q-1 -21 -13 -41q-279 -61 -663 -84q-285 -18 -377 -72q-135 -76 -219 -336 q-10 -39 33 -39q10 0 116 25q170 45 340 88q268 68 299 67q74 0 107 -16q57 -25 110 -113q-86 -160 -448 -315q-346 -147 -578 -148q-160 0 -233 56q-84 66 -84 221zM303 1577q14 -37 23.5 -46t44.5 -9q80 0 149 28q82 45 199 99q33 8 160 45l39 18q12 29 -5 49 q-37 49 -77 49q-16 2 -70 -14q-76 -23 -82 -24q-41 -10 -217 -64q-39 -14 -98 -45q-14 -10 -41 -45t-25 -41z" />
<glyph unicode="&#xca;" horiz-adv-x="1478" d="M-2 127q0 201 186 737q176 508 238 561q70 63 405 64q174 0 222 -12q102 -25 192 -134v-108q-205 -2 -407 -4q-244 -27 -244 -244v-55q129 -2 411 4q317 8 398 8q76 0 142.5 -30.5t66.5 -79.5q-1 -21 -13 -41q-274 -59 -663 -86q-281 -18 -373 -74q-133 -78 -211 -344 q-8 -29 31 -29q18 0 61 7t58 7q25 0 313.5 84t312.5 84q74 0 107 -16q57 -25 110 -113q-86 -160 -448 -315q-346 -147 -578 -148q-160 0 -233 56q-84 66 -84 221zM373 1532q4 -12 8 -25q8 -18 35 -20q29 0 90 20.5t89 39t81 69.5q22 25 147 70l33 26q6 31 -12 47 q-45 41 -88 35q-49 -23 -142 -63q-39 -16 -102 -39q-33 -20 -88 -64q-12 -12 -32.5 -51t-18.5 -45zM727 1745q-4 -57 33 -88q49 -25 139 -68q39 -18 111 -76q41 -12 106 -26q18 -2 61.5 7t46.5 15.5t8 14.5t5 18q0 12 -8 29q-16 25 -74 61q-51 31 -82 41q-33 4 -63 8 q-43 8 -62 27q-24 25 -149 66l-43 10q-14 -6 -29 -39z" />
<glyph unicode="&#xd2;" horiz-adv-x="1384" d="M4 408q0 104 74 372q92 330 215 539q160 276 340 276q326 0 543 -229q223 -235 223 -604q0 -330 -213 -612q-240 -319 -596 -320q-279 0 -436 162q-150 156 -150 416zM279 543q6 -182 65 -312q80 -172 229 -172q199 0 345 236q118 188 118 319q0 717 -264 717 q-182 0 -346 -270q-156 -262 -147 -518zM485 1794q4 -59 39 -84q53 -18 150 -49q43 -25 114 -43q49 -10 101 -23q86 -16 108 -14q18 0 59.5 14.5t43.5 22.5l5 10t5 19q0 14 -12 30q-18 25 -80 52q-53 23 -86 28q-94 8 -221 27q-33 10 -158 49l-43 4q-27 -16 -25 -43z" />
<glyph unicode="&#xd3;" horiz-adv-x="1384" d="M4 408q0 104 74 372q92 330 215 539q160 276 340 276q326 0 543 -229q223 -235 223 -604q0 -330 -213 -612q-240 -319 -596 -320q-279 0 -436 162q-150 156 -150 416zM233 1608q14 -37 23.5 -46.5t44.5 -9.5q80 0 150 29q82 45 198 98q33 8 160 45l39 19q12 29 -4 49 q-37 49 -78 49q-16 2 -70 -14q-76 -23 -82 -25q-41 -10 -217 -63q-39 -14 -98 -45q-14 -10 -41 -45t-25 -41zM307 422q0 -61 55 -143q80 -117 224 -117q197 0 297 217q69 149 69 301q0 188 -22 330q-49 295 -178 295q-115 0 -228 -199q-88 -158 -157 -397q-59 -205 -60 -287 z" />
<glyph unicode="&#xd4;" d="M16 367q0 104 74 370q92 330 215 541q160 274 340 274q326 0 543 -229q223 -235 223 -604q0 -330 -213 -613q-240 -319 -596 -319q-279 0 -436 162q-150 156 -150 418zM313 1554l4 -20q8 -16 37 -16q27 -2 92 20q59 18 84 35q43 29 80 65q23 23 148 70l37 27q6 31 -13 47 q-45 41 -88 35q-49 -23 -141 -64q-39 -16 -102 -39q-35 -23 -89 -63q-12 -12 -32.5 -51t-16.5 -46zM319 379q0 -61 56 -143q80 -117 223 -117q197 0 297 217q70 149 70 301q0 188 -23 330q-47 295 -178 295q-113 0 -227 -199q-88 -158 -158 -397q-59 -205 -60 -287z M666 1774q-4 -59 28 -88q49 -25 142 -68q37 -18 112 -68q41 -12 105 -28q20 0 63 6t46 12t8.5 14.5t5.5 18.5q0 12 -9 26q-16 27 -73 62q-51 29 -82 39q-47 10 -125 35q-31 14 -150 69l-43 11q-14 -6 -28 -41z" />
<glyph unicode="&#xd6;" horiz-adv-x="1091" d="M0 444q0 84 59 299q74 262 172 431q129 221 273 221q260 0 436 -186.5t176 -481.5q0 -262 -170 -489q-193 -256 -477 -256q-223 0 -348 131q-121 125 -121 331zM279 457q0 -61 26 -115q47 -94 162 -94q158 0 264 182q84 143 84 252q0 102 -49 291q-68 260 -172 260 q-129 0 -234 -348q-82 -279 -81 -428zM301 1473l4 73q2 25 33 46.5t65 21.5q18 0 35 -6l49 -41l37 -66q8 -37 -43 -71q-41 -27 -67 -27q-29 0 -70 27.5t-43 42.5zM649 1475l4 73q2 23 32 45.5t67 22.5q18 0 34 -8l48 -39l36 -68q8 -37 -38 -67.5t-70 -30.5q-29 0 -70 28.5 t-43 43.5z" />
<glyph unicode="&#xd7;" horiz-adv-x="661" d="M12 580q0 68 29 122q14 25 86 105l29 27q-61 53 -138 131q-27 47 0 116q10 31 50 37l47 -28l151 -140q4 -2 8 -6q43 39 62 53q57 55 147 127q49 20 117 -12q29 -14 31 -53l-35 -45l-154 -135q-8 -8 -22 -25q70 -41 82 -49q35 -25 84 -78q55 -63 63 -100q4 -10 4 -21 q0 -20 -14 -35q-10 -6 -21 -14q-4 -6 -59 0q-53 4 -76.5 13.5t-113.5 72.5l-64 57q-23 -33 -33 -43q-27 -31 -86 -73q-68 -49 -104 -54q-35 -4 -51 13q-8 12 -17 24q-2 2 -2 13z" />
<glyph unicode="&#xd9;" horiz-adv-x="1124" d="M-6 602q0 20 37 377q41 397 53 580q6 0 41 12t63 12q129 0 215 -90t86 -211q0 -29 -96 -357.5t-96 -355.5q0 -59 16.5 -82.5t69.5 -23.5q152 0 317 280q119 201 240 541q57 170 115 340h119q114 -112 114 -192q0 -121 -135 -459q-156 -393 -350 -654q-246 -332 -486 -331 q-164 0 -258 280q-66 193 -65 334z" />
<glyph unicode="&#xda;" horiz-adv-x="1124" d="M-6 602q0 20 37 377q41 397 53 580q6 0 41 12t63 12q129 0 215 -90t86 -211q0 -29 -96 -357.5t-96 -355.5q0 -59 16.5 -82.5t69.5 -23.5q152 0 317 280q119 201 240 541q57 170 115 340h119q114 -112 114 -192q0 -121 -135 -459q-156 -393 -350 -654q-246 -332 -486 -331 q-164 0 -258 280q-66 193 -65 334zM451 1571q0 -10 2 -23q6 -18 30 -26q16 -6 41 -6q61 0 115 22q96 49 227 107q33 8 158 43l41 20q10 29 -4 49q-37 49 -80 49q-14 0 -70 -14q-74 -23 -82 -25q-39 -10 -215 -63q-39 -16 -98 -45q-14 -12 -40.5 -46t-24.5 -42z" />
<glyph unicode="&#xdb;" d="M-6 602q0 20 37 377q41 397 53 580q6 0 41 12t63 12q129 0 215 -90t86 -211q0 -29 -96 -357.5t-96 -355.5q0 -59 16.5 -82.5t69.5 -23.5q152 0 317 280q119 201 240 541q57 170 115 340h119q114 -112 114 -192q0 -121 -135 -459q-156 -393 -350 -654q-246 -332 -486 -331 q-164 0 -258 280q-66 193 -65 334zM317 1599q2 -10 7 -18q6 -16 28 -16q23 0 72 16t67.5 28.5t63.5 57.5q21 18 119 55l28 23q6 25 -10 37q-35 33 -67 28q-74 -10 -115 -51q-31 -31 -82 -33q-29 -16 -70 -49q-10 -10 -26.5 -40.5t-14.5 -37.5zM600 1776q-2 -49 23 -72 q41 -18 112 -53q31 -14 92 -60q33 -10 84 -22q14 0 49 7t38 13t10 15q6 14 -7 32q-29 49 -124 80q-39 6 -101 29q-33 24 -119 55l-34 8q-10 -6 -23 -32z" />
<glyph unicode="&#xdc;" horiz-adv-x="1165" d="M-25 547q0 18 37 377q41 395 54 579q6 0 40.5 12.5t63.5 12.5q129 0 215 -90t86 -213q0 -27 -96 -355.5t-96 -355.5q0 -61 14 -82q18 -27 72 -26q152 0 317 282q119 201 240 541l114 340h119q117 -115 117 -166q0 -53 -101 -369q-137 -430 -315 -698q-252 -379 -555 -379 q-166 0 -260 268q-66 184 -66 322zM385 1552l4 74q2 23 33 45.5t65 22.5q18 0 35 -8l49 -39l37 -66q8 -39 -43 -72q-41 -29 -67 -28q-29 0 -70 28.5t-43 42.5zM733 1554l4 74q2 23 32 45.5t67 22.5q18 0 34 -8l48 -39l36 -68q8 -37 -38 -67.5t-70 -30.5q-29 0 -70 28.5 t-43 42.5z" />
<glyph unicode="&#xe0;" horiz-adv-x="1622" d="M-16 104q0 104 516 578q305 270 610 541q66 59 201 59q82 0 104 -61q8 -25 8 -119l-32 -408h229q33 3 53 -32q-23 -119 -74 -156q-39 -27 -147 -27q-70 0 -102 8q-20 -133 -41 -266q-57 -242 -164 -241q-84 0 -84 155q0 84 24.5 212t24.5 122q-4 4 -41 -4 q-45 -10 -51 -10q-29 0 -203 -27q-207 -35 -311 -66q-33 -43 -98 -122q-63 -86 -127 -172q-72 -88 -162 -88q-133 0 -133 124zM739 641l402 80q6 160 -6 213q-8 41 -35 43q-37 2 -49 14q-61 -43 -164 -170zM969 1544q4 -59 39 -84q53 -18 149 -49q43 -25 115 -43 q49 -10 100 -22q86 -16 109 -15q18 0 59 14.5t43 22.5l5 10q5 11 5 19q0 14 -12 30q-18 25 -80 52q-53 23 -86 28q-94 8 -221 27q-33 10 -158 49l-43 4q-27 -16 -24 -43z" />
<glyph unicode="&#xe1;" horiz-adv-x="1622" d="M-6 117q0 104 516 577q305 270 610 539q66 61 201 61q82 0 102 -61q10 -27 11 -121l-35 -405h229q35 2 53 -35q-20 -119 -71 -154q-39 -29 -150 -29q-68 0 -102 9q-18 -131 -39 -265q-57 -242 -164 -241q-84 0 -84 155q0 82 24.5 211t24.5 123q-4 4 -41 -6 q-45 -10 -53 -10q-29 0 -201 -27q-207 -33 -311 -63q-33 -45 -98 -125q-63 -86 -127 -170q-74 -88 -162 -88q-133 0 -133 125zM674 635l401 80q6 160 -6 213q-8 39 -35 41q-37 4 -49 16q-61 -45 -166 -170q-72 -90 -145 -180zM899 1374q12 -35 21.5 -44t46.5 -9q80 0 149 29 q82 45 199 98q33 8 158 43l40 20q10 29 -4 50q-37 49 -79 49q-14 0 -70 -15q-74 -23 -82 -24q-39 -10 -215 -64q-39 -16 -98 -45q-14 -12 -41 -46t-25 -42z" />
<glyph unicode="&#xe2;" horiz-adv-x="1597" d="M-10 123q0 104 516 579q307 268 612 539q66 61 199 62q84 0 104 -62q8 -27 9 -121l-33 -405h229q35 0 53 -35q-23 -119 -71 -154q-41 -29 -150 -28q-68 0 -102 8q-20 -133 -41 -264q-55 -242 -162 -242q-84 0 -84 156q0 82 24.5 211t24.5 122q-4 4 -45 -6t-49 -10 q-29 0 -203 -27q-205 -33 -311 -63q-33 -45 -96 -125q-66 -86 -129 -170q-72 -88 -162 -88q-133 0 -133 123zM748 662l401 79q6 158 -6 213q-8 39 -35 41q-37 4 -49 17q-61 -45 -166 -172q-74 -90 -145 -178zM840 1368q4 -12 6 -25q8 -18 37 -18q27 -2 92 21 q59 20 81.5 34.5t80.5 71.5q24 25 149 70l35 26q6 31 -12 49q-45 41 -86 35q-51 -25 -144 -65q-37 -16 -100 -39q-37 -23 -90 -64q-12 -12 -32.5 -51t-16.5 -45zM1192 1589q-2 -61 29 -90q51 -23 141 -67q37 -18 115 -74q41 -12 104 -29q18 0 61.5 9.5t46.5 15.5t9 14t6 18 q0 12 -10 29q-14 25 -74 60q-49 29 -82 38q-45 10 -125 37q-30 15 -149 68l-43 10q-14 -6 -29 -39z" />
<glyph unicode="&#xe4;" horiz-adv-x="1673" d="M-74 43q0 104 516 578q307 270 613 538q66 61 198 62q84 0 105 -62q8 -25 8 -119l-33 -407h230q35 2 53 -35q-23 -119 -72 -154q-41 -29 -149 -28q-68 0 -103 10q-20 -133 -41 -266q-55 -242 -161 -242q-84 0 -84 156q0 84 24.5 212t24.5 122q-4 4 -45 -5.5t-49 -9.5 q-29 0 -203 -28q-205 -33 -312 -64q-33 -45 -97 -127t-128 -168q-72 -88 -162 -88q-133 0 -133 125zM684 580l401 79q6 160 -6 213q-8 39 -35 41q-37 4 -49 17q-61 -45 -166 -170q-74 -90 -145 -180zM829 1313l5 73q2 23 31.5 45.5t66.5 22.5q18 0 35 -8l47 -39l37 -68 q8 -37 -38 -67.5t-71 -30.5q-29 0 -70 28.5t-43 43.5zM1423 1276l4 74q2 23 32 45t67 22q18 0 35 -8l47 -39l37 -67q8 -37 -38 -68t-71 -31q-29 0 -70 29t-43 43z" />
<glyph unicode="&#xe7;" horiz-adv-x="1574" d="M-6 358q0 182 252 422q213 203 514 371q285 160 411 160q92 0 93 -115q0 -49 -7 -66q-8 -23 -51 -61q-10 -10 -284 -137q-285 -135 -439 -256q-229 -180 -229 -363q0 -90 113 -129q68 -23 153 -22q139 0 326 39q150 33 217 61q115 59 350 170q158 63 164 64q27 0 77 -37 t50 -66q0 -27 -125 -80q-715 -305 -1124 -305q-461 0 -461 350zM236 -176q0 -39 55 -64q47 -20 94 -20q63 0 131 27q20 8 74 73q51 59 51 68q0 8 -39 90q-274 16 -280 4q-7 -10 26 -53q72 16 111 16t37 -16q-4 -39 -95 -84q-39 -20 -116 -4q-8 35 -21 35q-10 0 -19 -29 t-9 -43z" />
<glyph unicode="&#xe8;" horiz-adv-x="1210" d="M-6 184q0 162 147 590q141 406 193.5 453t322.5 47q123 0 185 -19q90 -29 164 -116l-19 -68q-4 -6 -158 0q-178 6 -272 -20q-145 -43 -145 -166v-56q98 -2 368 17q283 18 359 18q59 0 121.5 -23.5t62.5 -58.5q0 -21 -27 -41q-201 -51 -548 -94q-272 -33 -355 -78 q-125 -63 -112 -233q10 -6 36 -6q25 0 77 6t65 6q20 0 217.5 47t216.5 47q59 0 86 -10q47 -20 88 -92q-68 -127 -358 -252q-276 -119 -463 -119q-127 0 -185 45q-68 53 -67 176zM315 1573q4 -61 39 -86q53 -16 148 -49q43 -23 114 -41q51 -12 103 -25q84 -14 106 -14 q18 2 59.5 16.5t42.5 18.5t7 14t6 18q0 14 -12 31q-18 23 -82 49q-53 25 -86 29q-92 8 -221 27q-31 10 -156 49l-45 6q-25 -18 -23 -43z" />
<glyph unicode="&#xe9;" horiz-adv-x="1202" d="M-6 184q0 162 147 590q141 406 193.5 453t322.5 47q123 0 185 -19q90 -29 164 -116l-19 -68q-4 -6 -158 0q-178 6 -272 -20q-145 -43 -145 -166v-56q98 -2 368 17q283 18 359 18q59 0 121.5 -23.5t62.5 -58.5q0 -21 -27 -41q-201 -51 -548 -94q-272 -33 -355 -78 q-125 -63 -112 -233q10 -6 36 -6q25 0 77 6t65 6q20 0 217.5 47t216.5 47q59 0 86 -10q47 -20 88 -92q-68 -127 -358 -252q-276 -119 -463 -119q-127 0 -185 45q-68 53 -67 176zM303 1393q12 -37 21.5 -45.5t46.5 -8.5q80 0 149 29q82 45 199 98q33 8 160 43l39 21 q12 29 -5 49q-37 49 -79 49q-14 0 -68 -14q-76 -23 -82 -25q-41 -10 -217 -63q-39 -16 -98 -45q-14 -12 -41 -46t-25 -42z" />
<glyph unicode="&#xea;" horiz-adv-x="1220" d="M-6 184q0 162 147 590q141 406 193.5 453t322.5 47q123 0 185 -19q90 -29 164 -116l-19 -68q-4 -6 -158 0q-178 6 -272 -20q-145 -43 -145 -166v-56q98 -2 368 17q283 18 359 18q59 0 121.5 -23.5t62.5 -58.5q0 -21 -27 -41q-201 -51 -548 -94q-272 -33 -355 -78 q-125 -63 -112 -233q10 -6 36 -6q25 0 77 6t65 6q20 0 217.5 47t216.5 47q59 0 86 -10q47 -20 88 -92q-68 -127 -358 -252q-276 -119 -463 -119q-127 0 -185 45q-68 53 -67 176zM164 1362q2 -12 6 -25q8 -18 35 -18q29 -2 90 19.5t84.5 36t81.5 71.5q24 25 147 70l37 26 q6 31 -12 49q-45 41 -86 35q-51 -25 -144 -65q-37 -16 -100 -39q-37 -23 -90 -62q-12 -14 -32.5 -53t-16.5 -45zM516 1583q-2 -61 29 -90q51 -23 141 -68q37 -18 115 -73q41 -12 104 -29q18 0 61.5 9t46.5 15.5t9 14.5t6 18q0 12 -10 29q-14 25 -74 59q-49 29 -82 39 q-47 10 -125 37q-30 15 -149 68l-43 10q-14 -6 -29 -39z" />
<glyph unicode="&#xf2;" horiz-adv-x="1128" d="M-6 436q0 82 59 279q74 240 172 395q129 201 273 201q276 0 450 -142q195 -157 195 -440q0 -260 -187 -496q-207 -260 -493 -260q-223 0 -348 131q-121 125 -121 332zM219 434q0 -74 25 -133q43 -115 157 -115q158 0 281 197q98 160 98 264q0 -2 15.5 78t15.5 141 q0 250 -246 230q-131 -10 -248 -297q-98 -240 -98 -365zM281 1587q6 -59 41 -84q53 -16 147 -49q43 -25 117 -43q49 -10 98 -22q86 -14 109 -15q18 2 59 16.5t43 20.5l6 11q6 10 6 20q0 14 -16.5 33.5t-77.5 46.5q-53 23 -86 28q-94 8 -221 27q-33 10 -158 49l-43 6 q-27 -18 -24 -45z" />
<glyph unicode="&#xf3;" horiz-adv-x="1128" d="M-6 436q0 82 59 279q74 240 172 395q129 201 273 201q276 0 450 -142q195 -157 195 -440q0 -260 -187 -496q-207 -260 -493 -260q-223 0 -348 131q-121 125 -121 332zM219 434q0 -74 25 -133q43 -115 157 -115q158 0 281 197q98 160 98 264q0 -2 15.5 78t15.5 141 q0 250 -246 230q-131 -10 -248 -297q-98 -240 -98 -365zM315 1403q14 -37 23.5 -46t44.5 -9q80 0 149 28q82 45 199 99q33 8 160 45l39 18q12 29 -4 49q-37 49 -78 49q-16 2 -70 -14q-76 -23 -82 -25q-41 -10 -217 -63q-39 -14 -98 -45q-14 -10 -41 -45t-25 -41z" />
<glyph unicode="&#xf4;" horiz-adv-x="1128" d="M-6 436q0 82 59 279q74 240 172 395q129 201 273 201q276 0 450 -142q195 -157 195 -440q0 -260 -187 -496q-207 -260 -493 -260q-223 0 -348 131q-121 125 -121 332zM195 1397q2 -12 6 -25q8 -18 35 -18q29 -2 90 18.5t84.5 35.5t81.5 73q22 22 147 69l37 27 q6 31 -12 47q-45 43 -89 37q-49 -25 -141 -66q-37 -16 -102 -39q-35 -23 -88 -63q-12 -12 -33 -51t-16 -45zM219 434q0 -74 25 -133q43 -115 157 -115q158 0 281 197q98 160 98 264q0 -2 15.5 78t15.5 141q0 250 -246 230q-131 -10 -248 -297q-98 -240 -98 -365zM547 1616 q-4 -59 28 -88q49 -25 142 -68q37 -18 114 -74q39 -14 105 -28q18 0 61 9t46.5 15.5t8.5 14.5t5 18q0 12 -8 29q-16 25 -74 59q-51 29 -82 39q-47 10 -125 35q-31 15 -150 70l-43 10q-14 -6 -28 -41z" />
<glyph unicode="&#xf6;" horiz-adv-x="868" d="M6 367q0 68 49 237q57 211 138 346q102 176 217 176q209 0 349 -149.5t140 -382.5q0 -211 -135 -393q-154 -205 -381 -205q-180 0 -278.5 102.5t-98.5 268.5zM156 1403l4 74q2 23 32.5 45t65.5 22q18 0 35 -8l49 -39l37 -65q8 -39 -43 -72q-41 -29 -68 -29 q-29 0 -69.5 29t-42.5 43zM229 375q0 -49 21 -90q39 -76 129 -76q127 0 190 139q45 95 45 193q0 399 -129 399q-104 0 -188 -250q-68 -203 -68 -315zM504 1405l4 74q2 23 31.5 45t66.5 22q18 0 35 -8l47 -39l37 -67q8 -37 -38 -68t-71 -31q-29 0 -69.5 29t-42.5 43z" />
<glyph unicode="&#xf9;" d="M0 494q0 16 29 303q33 317 43 463q4 0 32.5 10t51.5 10q94 0 143 -125q37 -96 37 -221q0 -23 -78 -285t-78 -284q0 -51 39 -80q31 -25 74 -25q168 0 373 520q92 266 182 533h96q90 -91 90 -154q0 -106 -98 -371q-119 -315 -272 -522q-199 -264 -406 -264q-131 0 -207 225 q-51 154 -51 267zM281 1587q6 -59 41 -84q53 -16 147 -49q43 -25 117 -43q49 -10 98 -22q86 -14 109 -15q18 2 59 16.5t43 20.5l6 11q6 10 6 20q0 14 -16.5 33.5t-77.5 46.5q-53 23 -86 28q-94 8 -221 27q-33 10 -158 49l-43 6q-27 -18 -24 -45z" />
<glyph unicode="&#xfa;" d="M0 494q0 16 29 303q33 317 43 463q4 0 32.5 10t51.5 10q96 0 155 -94q51 -82 51 -189q0 -23 -77.5 -284.5t-77.5 -284.5q0 -59 20.5 -106.5t55.5 -47.5q170 0 376 512q94 264 189 527h96q90 -91 90 -154q0 -106 -98 -371q-119 -315 -272 -522q-199 -264 -406 -264 q-131 0 -207 225q-51 154 -51 267zM315 1403q14 -37 23.5 -46t44.5 -9q80 0 149 28q82 45 199 99q33 8 160 45l39 18q12 29 -4 49q-37 49 -78 49q-16 2 -70 -14q-76 -23 -82 -25q-41 -10 -217 -63q-39 -14 -98 -45q-14 -10 -41 -45t-25 -41z" />
<glyph unicode="&#xfb;" d="M0 494q0 16 29 303q33 317 43 463q4 0 32.5 10t51.5 10q92 0 139 -127q33 -94 33 -223q0 -23 -67.5 -285t-67.5 -285q0 -49 13 -67.5t56 -18.5q170 0 387 512q100 264 199 527h96q90 -91 90 -154q0 -106 -98 -371q-119 -315 -272 -522q-199 -264 -406 -264 q-131 0 -207 225q-51 154 -51 267zM195 1397q2 -12 6 -25q8 -18 35 -18q29 -2 90 18.5t84.5 35.5t81.5 73q22 22 147 69l37 27q6 31 -12 47q-45 43 -89 37q-49 -25 -141 -66q-37 -16 -102 -39q-35 -23 -88 -63q-12 -12 -33 -51t-16 -45zM547 1616q-4 -59 28 -88 q49 -25 142 -68q37 -18 114 -74q39 -14 105 -28q18 0 61 9t46.5 15.5t8.5 14.5t5 18q0 12 -8 29q-16 25 -74 59q-51 29 -82 39q-47 10 -125 35q-31 15 -150 70l-43 10q-14 -6 -28 -41z" />
<glyph unicode="&#xfc;" horiz-adv-x="1226" d="M6 584q6 158 12 313q10 176 29 334q4 0 40 12t65 12q135 0 135 -225q0 -29 -2 -88t-2 -84q0 -16 -15.5 -187t-15.5 -210q0 -80 24 -154q29 -84 72 -82q223 8 361 209q96 139 178 434q102 362 131 430h119q112 -114 112 -192q0 -117 -121 -379q-141 -305 -325 -506 q-233 -252 -473 -252q-166 0 -260 281q-70 205 -64 334zM379 1470l2 74q4 23 33.5 45.5t64.5 22.5q20 0 37 -8l47 -39l37 -66q6 -33 -35 -66.5t-73 -33.5q-29 0 -71 28.5t-42 42.5zM705 1487l4 74q2 23 31.5 45t66.5 22q18 0 35 -8l47 -39l37 -68q6 -23 -38 -60.5t-71 -37.5 q-29 0 -69.5 29t-42.5 43z" />
<glyph unicode="&#x2000;" horiz-adv-x="920" />
<glyph unicode="&#x2001;" horiz-adv-x="1841" />
<glyph unicode="&#x2002;" horiz-adv-x="920" />
<glyph unicode="&#x2003;" horiz-adv-x="1841" />
<glyph unicode="&#x2004;" horiz-adv-x="613" />
<glyph unicode="&#x2005;" horiz-adv-x="460" />
<glyph unicode="&#x2006;" horiz-adv-x="306" />
<glyph unicode="&#x2007;" horiz-adv-x="306" />
<glyph unicode="&#x2008;" horiz-adv-x="230" />
<glyph unicode="&#x2009;" horiz-adv-x="368" />
<glyph unicode="&#x200a;" horiz-adv-x="102" />
<glyph unicode="&#x2010;" horiz-adv-x="929" d="M88 764q0 -25 25.5 -60.5t48.5 -46.5q70 -6 194 -18q51 -6 281 -18q53 2 135 12q23 6 69 35.5t46 38.5q0 2 3 12t3 18q0 23 -26.5 44.5t-110.5 37.5q-72 12 -113 10q-12 0 -137 -18q-113 -14 -139 -12q-41 4 -205 16l-56 -6q-18 -20 -18 -45z" />
<glyph unicode="&#x2011;" horiz-adv-x="929" d="M88 764q0 -25 25.5 -60.5t48.5 -46.5q70 -6 194 -18q51 -6 281 -18q53 2 135 12q23 6 69 35.5t46 38.5q0 2 3 12t3 18q0 23 -26.5 44.5t-110.5 37.5q-72 12 -113 10q-12 0 -137 -18q-113 -14 -139 -12q-41 4 -205 16l-56 -6q-18 -20 -18 -45z" />
<glyph unicode="&#x2012;" horiz-adv-x="929" d="M88 764q0 -25 25.5 -60.5t48.5 -46.5q70 -6 194 -18q51 -6 281 -18q53 2 135 12q23 6 69 35.5t46 38.5q0 2 3 12t3 18q0 23 -26.5 44.5t-110.5 37.5q-72 12 -113 10q-12 0 -137 -18q-113 -14 -139 -12q-41 4 -205 16l-56 -6q-18 -20 -18 -45z" />
<glyph unicode="&#x2013;" horiz-adv-x="1148" d="M88 764q0 -25 32.5 -60.5t61.5 -46.5q89 -6 247 -18q65 -6 357 -18q68 2 172 12q29 6 87.5 35.5t58.5 38.5q0 2 4 12t4 18q0 23 -33.5 44.5t-140.5 37.5q-92 12 -144 10q-15 0 -174 -18q-144 -14 -177 -12q-52 4 -261 16l-71 -6q-23 -20 -23 -45z" />
<glyph unicode="&#x2014;" horiz-adv-x="2172" d="M88 764q0 -25 65 -60.5t123 -46.5q178 -6 494 -18q130 -6 715 -18q135 2 343 12q59 6 176 35.5t117 38.5q0 2 7.5 12t7.5 18q0 23 -67.5 44.5t-281.5 37.5q-183 12 -287 10q-31 0 -349 -18q-287 -14 -353 -12q-105 4 -522 16l-142 -6q-46 -20 -46 -45z" />
<glyph unicode="&#x202f;" horiz-adv-x="368" />
<glyph unicode="&#x205f;" horiz-adv-x="460" />
<glyph unicode="&#x25fc;" horiz-adv-x="1280" d="M0 0v1280h1280v-1280h-1280z" />
</font>
</defs>
</svg>
